<?xml version="1.0" encoding="UTF-8" standalone="no"?>
<svg width="174px" height="58px" viewBox="0 0 174 58" version="1.1" xmlns="http://www.w3.org/2000/svg" xmlns:xlink="http://www.w3.org/1999/xlink">
    <!-- Generator: Sketch 3.7.2 (28276) - http://www.bohemiancoding.com/sketch -->
    <title>btn_appstore_lg</title>
    <desc>Created with Sketch.</desc>
    <defs></defs>
    <g id="Page-1" stroke="none" stroke-width="1" fill="none" fill-rule="evenodd">
        <g id="btn_appstore_lg">
            <rect id="Rectangle-7" fill="#23B5D3" x="0" y="0" width="174" height="58" rx="4"></rect>
            <g id="Group-Copy" transform="translate(51.000000, 13.000000)" fill="#FFFFFF">
                <path d="M12.236,30.677 L7.619,17.928 C7.562,17.776 7.41,17.7 7.258,17.7 L5.358,17.7 C5.206,17.7 5.092,17.776 5.035,17.928 L0.418,30.677 C0.342,30.867 0.437,31 0.646,31 L2.755,31 C2.907,31 3.021,30.943 3.078,30.772 L3.857,28.473 L8.797,28.473 L9.576,30.772 C9.633,30.943 9.747,31 9.899,31 L12.008,31 C12.217,31 12.312,30.867 12.236,30.677 L12.236,30.677 Z M4.579,26.269 L6.327,21.082 L8.075,26.269 L4.579,26.269 Z M19.767,17.7 L15.834,17.7 C15.663,17.7 15.549,17.814 15.549,17.985 L15.549,30.715 C15.549,30.886 15.663,31 15.834,31 L17.867,31 C18.038,31 18.152,30.886 18.152,30.715 L18.152,26.383 L19.767,26.383 C22.902,26.383 24.593,24.578 24.593,22.032 C24.593,19.505 22.902,17.7 19.767,17.7 L19.767,17.7 Z M19.71,24.065 L18.152,24.065 L18.152,19.999 L19.71,19.999 C20.926,19.999 22.104,20.493 22.104,22.032 C22.104,23.59 20.926,24.065 19.71,24.065 L19.71,24.065 Z M32.181,17.7 L28.248,17.7 C28.077,17.7 27.963,17.814 27.963,17.985 L27.963,30.715 C27.963,30.886 28.077,31 28.248,31 L30.281,31 C30.452,31 30.566,30.886 30.566,30.715 L30.566,26.383 L32.181,26.383 C35.316,26.383 37.007,24.578 37.007,22.032 C37.007,19.505 35.316,17.7 32.181,17.7 L32.181,17.7 Z M32.124,24.065 L30.566,24.065 L30.566,19.999 L32.124,19.999 C33.34,19.999 34.518,20.493 34.518,22.032 C34.518,23.59 33.34,24.065 32.124,24.065 L32.124,24.065 Z M49.5420001,21.329 C49.5420001,20.55 50.1690001,19.98 51.2330001,19.98 C52.1830001,19.98 52.8480001,20.322 53.7790001,21.044 C53.9310001,21.158 54.0640001,21.139 54.1780001,20.987 L55.2230001,19.714 C55.3560001,19.562 55.3560001,19.448 55.2230001,19.315 C54.1590001,18.251 52.8100001,17.548 51.1570001,17.548 C48.9720001,17.548 47.0150001,18.954 47.0150001,21.272 C47.0150001,25.623 53.3230001,24.901 53.3230001,27.257 C53.3230001,28.207 52.4300001,28.815 51.3090001,28.815 C50.1500001,28.815 49.2570001,28.321 48.3450001,27.523 C48.1930001,27.39 48.0410001,27.409 47.9270001,27.542 L46.7870001,28.777 C46.6730001,28.91 46.6730001,29.043 46.7680001,29.176 C47.6420001,30.221 49.3140001,31.247 51.2520001,31.247 C53.5700001,31.247 55.8690001,29.822 55.8690001,27.314 C55.8690001,22.697 49.5420001,23.666 49.5420001,21.329 L49.5420001,21.329 Z M67.0100001,17.7 L58.6500001,17.7 C58.4790001,17.7 58.3650001,17.814 58.3650001,17.985 L58.3650001,19.714 C58.3650001,19.885 58.4790001,19.999 58.6500001,19.999 L61.5380001,19.999 L61.5380001,30.715 C61.5380001,30.886 61.6520001,31 61.8230001,31 L63.8560001,31 C64.0270001,31 64.1410001,30.886 64.1410001,30.715 L64.1410001,19.999 L67.0100001,19.999 C67.1810001,19.999 67.2950001,19.885 67.2950001,19.714 L67.2950001,17.985 C67.2950001,17.814 67.1810001,17.7 67.0100001,17.7 L67.0100001,17.7 Z M76.1750001,31.247 C79.9370001,31.247 83.0150001,28.207 83.0150001,24.407 C83.0150001,20.588 79.9370001,17.548 76.1750001,17.548 C72.4130001,17.548 69.3350001,20.588 69.3350001,24.407 C69.3350001,28.207 72.4130001,31.247 76.1750001,31.247 L76.1750001,31.247 Z M76.1750001,28.739 C73.8000001,28.739 71.9380001,26.839 71.9380001,24.407 C71.9380001,21.956 73.8000001,20.056 76.1750001,20.056 C78.5500001,20.056 80.4120001,21.956 80.4120001,24.407 C80.4120001,26.839 78.5500001,28.739 76.1750001,28.739 L76.1750001,28.739 Z M95.8470002,30.658 L92.8260002,26.079 C94.6500002,25.452 95.6190002,23.951 95.6190002,22.032 C95.6190002,19.505 93.9280002,17.7 90.7930002,17.7 L86.8600002,17.7 C86.6890002,17.7 86.5750002,17.814 86.5750002,17.985 L86.5750002,30.715 C86.5750002,30.886 86.6890002,31 86.8600002,31 L88.8930002,31 C89.0640002,31 89.1780002,30.886 89.1780002,30.715 L89.1780002,26.383 L90.2800002,26.383 L93.1490002,30.81 C93.2250002,30.943 93.3390002,31 93.4910002,31 L95.6570002,31 C95.8850002,31 95.9800002,30.867 95.8470002,30.658 L95.8470002,30.658 Z M89.1780002,19.999 L90.7360002,19.999 C91.9520002,19.999 93.1300002,20.493 93.1300002,22.032 C93.1300002,23.59 91.9520002,24.065 90.7360002,24.065 L89.1780002,24.065 L89.1780002,19.999 Z M106.76,28.701 L102.067,28.701 L102.067,25.3 L106.456,25.3 C106.627,25.3 106.741,25.186 106.741,25.015 L106.741,23.286 C106.741,23.115 106.627,23.001 106.456,23.001 L102.067,23.001 L102.067,19.999 L106.741,19.999 C106.912,19.999 107.026,19.885 107.026,19.714 L107.026,17.985 C107.026,17.814 106.912,17.7 106.741,17.7 L99.7490002,17.7 C99.5780002,17.7 99.4640002,17.814 99.4640002,17.985 L99.4640002,30.715 C99.4640002,30.886 99.5780002,31 99.7490002,31 L106.76,31 C106.931,31 107.045,30.886 107.045,30.715 L107.045,28.986 C107.045,28.815 106.931,28.701 106.76,28.701 L106.76,28.701 Z" id="APP-STORE"></path>
                <path d="M3.41,1 L1.74,1 C1.65,1 1.59,1.06 1.59,1.15 L1.59,7.85 C1.59,7.94 1.65,8 1.74,8 L3.41,8 C5.84,8 7.08,6.47 7.08,4.5 C7.08,2.53 5.84,1 3.41,1 L3.41,1 Z M3.41,7.15 L2.52,7.15 L2.52,1.85 L3.41,1.85 C5.23,1.85 6.13,2.85 6.13,4.5 C6.13,6.15 5.23,7.15 3.41,7.15 L3.41,7.15 Z M12.2890909,8.13 C14.2690909,8.13 15.8690909,6.53 15.8690909,4.53 C15.8690909,2.52 14.2690909,0.92 12.2890909,0.92 C10.3090909,0.92 8.70909094,2.52 8.70909094,4.53 C8.70909094,6.53 10.3090909,8.13 12.2890909,8.13 L12.2890909,8.13 Z M12.2890909,7.24 C10.7990909,7.24 9.62909094,6.04 9.62909094,4.53 C9.62909094,3 10.7990909,1.8 12.2890909,1.8 C13.7790909,1.8 14.9490909,3 14.9490909,4.53 C14.9490909,6.04 13.7790909,7.24 12.2890909,7.24 L12.2890909,7.24 Z M27.0081819,1 L26.3581819,1 C26.2781819,1 26.2081819,1.03 26.1881819,1.12 L24.4381819,6.83 L22.5181819,1.12 C22.4981819,1.07 22.4781819,1.04 22.4481819,1.02 C22.4281819,1.01 22.3981819,1 22.3581819,1 L21.7581819,1 C21.7081819,1 21.6781819,1.01 21.6581819,1.03 C21.6281819,1.05 21.6081819,1.08 21.5981819,1.12 L19.6781819,6.83 L17.9381819,1.12 C17.9081819,1.03 17.8481819,1 17.7681819,1 L17.1281819,1 C17.0181819,1 16.9681819,1.07 17.0081819,1.17 L19.1581819,7.88 C19.1781819,7.96 19.2581819,8 19.3381819,8 L20.0081819,8 C20.0881819,8 20.1481819,7.96 20.1781819,7.88 L22.0581819,2.4 L23.9281819,7.88 C23.9481819,7.96 24.0281819,8 24.1081819,8 L24.7781819,8 C24.8581819,8 24.9281819,7.96 24.9581819,7.88 L27.1281819,1.17 C27.1581819,1.07 27.1181819,1 27.0081819,1 L27.0081819,1 Z M34.1072728,1 L33.4772728,1 C33.3872728,1 33.3272728,1.06 33.3272728,1.15 L33.3272728,6.63 L30.0972728,1.1 C30.0572728,1.03 29.9972728,1 29.9172728,1 L29.1072728,1 C29.0272728,1.01 28.9772728,1.07 28.9772728,1.15 L28.9772728,7.85 C28.9772728,7.94 29.0372728,8 29.1272728,8 L29.7572728,8 C29.8472728,8 29.9072728,7.94 29.9072728,7.85 L29.9072728,2.37 L33.1272728,7.9 C33.1672728,7.97 33.2272728,8 33.3072728,8 L34.1272728,8 C34.2072728,7.99 34.2572728,7.93 34.2572728,7.85 L34.2572728,1.15 C34.2572728,1.06 34.1972728,1 34.1072728,1 L34.1072728,1 Z M39.8063637,7.15 L37.2763637,7.15 L37.2763637,1.15 C37.2763637,1.06 37.2163637,1 37.1263637,1 L36.4963637,1 C36.4063637,1 36.3463637,1.06 36.3463637,1.15 L36.3463637,7.85 C36.3463637,7.94 36.4063637,8 36.4963637,8 L39.8063637,8 C39.8963637,8 39.9563637,7.94 39.9563637,7.85 L39.9563637,7.3 C39.9563637,7.21 39.8963637,7.15 39.8063637,7.15 L39.8063637,7.15 Z M44.7154547,8.13 C46.6954547,8.13 48.2954547,6.53 48.2954547,4.53 C48.2954547,2.52 46.6954547,0.92 44.7154547,0.92 C42.7354547,0.92 41.1354547,2.52 41.1354547,4.53 C41.1354547,6.53 42.7354547,8.13 44.7154547,8.13 L44.7154547,8.13 Z M44.7154547,7.24 C43.2254547,7.24 42.0554547,6.04 42.0554547,4.53 C42.0554547,3 43.2254547,1.8 44.7154547,1.8 C46.2054547,1.8 47.3754547,3 47.3754547,4.53 C47.3754547,6.04 46.2054547,7.24 44.7154547,7.24 L44.7154547,7.24 Z M55.2345456,7.83 L52.7845456,1.12 C52.7545456,1.04 52.6845456,1 52.6045456,1 L51.9745456,1 C51.8945456,1 51.8245456,1.04 51.7945456,1.12 L49.3445456,7.83 C49.3045456,7.93 49.3545456,8 49.4645456,8 L50.1045456,8 C50.1845456,8 50.2445456,7.97 50.2745456,7.88 L50.7845456,6.43 L53.7945456,6.43 L54.3045456,7.88 C54.3345456,7.97 54.3945456,8 54.4745456,8 L55.1145456,8 C55.2245456,8 55.2745456,7.93 55.2345456,7.83 L55.2345456,7.83 Z M51.0745456,5.62 L52.2945456,2.17 L53.5045456,5.62 L51.0745456,5.62 Z M58.8136366,1 L57.1436366,1 C57.0536366,1 56.9936366,1.06 56.9936366,1.15 L56.9936366,7.85 C56.9936366,7.94 57.0536366,8 57.1436366,8 L58.8136366,8 C61.2436366,8 62.4836366,6.47 62.4836366,4.5 C62.4836366,2.53 61.2436366,1 58.8136366,1 L58.8136366,1 Z M58.8136366,7.15 L57.9236366,7.15 L57.9236366,1.85 L58.8136366,1.85 C60.6336366,1.85 61.5336366,2.85 61.5336366,4.5 C61.5336366,6.15 60.6336366,7.15 58.8136366,7.15 L58.8136366,7.15 Z M71.2018184,8.13 C73.1818184,8.13 74.7818184,6.53 74.7818184,4.53 C74.7818184,2.52 73.1818184,0.92 71.2018184,0.92 C69.2218184,0.92 67.6218184,2.52 67.6218184,4.53 C67.6218184,6.53 69.2218184,8.13 71.2018184,8.13 L71.2018184,8.13 Z M71.2018184,7.24 C69.7118184,7.24 68.5418184,6.04 68.5418184,4.53 C68.5418184,3 69.7118184,1.8 71.2018184,1.8 C72.6918184,1.8 73.8618184,3 73.8618184,4.53 C73.8618184,6.04 72.6918184,7.24 71.2018184,7.24 L71.2018184,7.24 Z M81.8009094,1 L81.1709094,1 C81.0809094,1 81.0209094,1.06 81.0209094,1.15 L81.0209094,6.63 L77.7909094,1.1 C77.7509094,1.03 77.6909094,1 77.6109094,1 L76.8009094,1 C76.7209094,1.01 76.6709094,1.07 76.6709094,1.15 L76.6709094,7.85 C76.6709094,7.94 76.7309094,8 76.8209094,8 L77.4509094,8 C77.5409094,8 77.6009094,7.94 77.6009094,7.85 L77.6009094,2.37 L80.8209094,7.9 C80.8609094,7.97 80.9209094,8 81.0009094,8 L81.8209094,8 C81.9009094,7.99 81.9509094,7.93 81.9509094,7.85 L81.9509094,1.15 C81.9509094,1.06 81.8909094,1 81.8009094,1 L81.8009094,1 Z M91.5690912,1 L87.4990912,1 C87.4090912,1 87.3490912,1.06 87.3490912,1.15 L87.3490912,1.7 C87.3490912,1.79 87.4090912,1.85 87.4990912,1.85 L89.0690912,1.85 L89.0690912,7.85 C89.0690912,7.94 89.1290912,8 89.2190912,8 L89.8490912,8 C89.9390912,8 89.9990912,7.94 89.9990912,7.85 L89.9990912,1.85 L91.5690912,1.85 C91.6590912,1.85 91.7190912,1.79 91.7190912,1.7 L91.7190912,1.15 C91.7190912,1.06 91.6590912,1 91.5690912,1 L91.5690912,1 Z M98.4281822,1 L97.7981822,1 C97.7081822,1 97.6481822,1.06 97.6481822,1.15 L97.6481822,4.1 L94.5381822,4.1 L94.5381822,1.15 C94.5381822,1.06 94.4781822,1 94.3881822,1 L93.7581822,1 C93.6681822,1 93.6081822,1.06 93.6081822,1.15 L93.6081822,7.85 C93.6081822,7.94 93.6681822,8 93.7581822,8 L94.3881822,8 C94.4781822,8 94.5381822,7.94 94.5381822,7.85 L94.5381822,4.95 L97.6481822,4.95 L97.6481822,7.85 C97.6481822,7.94 97.7081822,8 97.7981822,8 L98.4281822,8 C98.5181822,8 98.5781822,7.94 98.5781822,7.85 L98.5781822,1.15 C98.5781822,1.06 98.5181822,1 98.4281822,1 L98.4281822,1 Z M104.327273,7.15 L101.597273,7.15 L101.597273,4.74 L104.157273,4.74 C104.247273,4.74 104.307273,4.68 104.307273,4.59 L104.307273,4.04 C104.307273,3.95 104.247273,3.89 104.157273,3.89 L101.597273,3.89 L101.597273,1.85 L104.317273,1.85 C104.407273,1.85 104.467273,1.79 104.467273,1.7 L104.467273,1.15 C104.467273,1.06 104.407273,1 104.317273,1 L100.817273,1 C100.727273,1 100.667273,1.06 100.667273,1.15 L100.667273,7.85 C100.667273,7.94 100.727273,8 100.817273,8 L104.327273,8 C104.417273,8 104.477273,7.94 104.477273,7.85 L104.477273,7.3 C104.477273,7.21 104.417273,7.15 104.327273,7.15 L104.327273,7.15 Z" id="DOWNLOAD-ON-THE"></path>
            </g>
            <g id="apple_log" transform="translate(9.000000, 8.000000)" fill="#FFFFFF">
                <path d="M26.8562963,21.1614815 C26.8133333,16.3866667 30.7659259,14.0637037 30.9466667,13.9555556 C28.7081481,10.6918519 25.2385185,10.2459259 24.0192593,10.2103704 C21.1051852,9.9037037 18.2785185,11.9540741 16.7940741,11.9540741 C15.28,11.9540741 12.9940741,10.24 10.5303704,10.2903704 C7.36,10.3392593 4.39407407,12.1748148 2.76740741,15.0251852 C-0.58962963,20.837037 1.91407407,29.3777778 5.13037037,34.0755556 C6.73925926,36.3777778 8.61925926,38.9451852 11.08,38.8548148 C13.4874074,38.7555556 14.3866667,37.32 17.2918519,37.32 C20.1703704,37.32 21.0148148,38.8548148 23.5244444,38.797037 C26.1081481,38.7555556 27.7348148,36.4859259 29.2874074,34.1644444 C31.1466667,31.5274074 31.8933333,28.9288889 31.922963,28.7955556 C31.8622222,28.7762963 26.9051852,26.8844444 26.8562963,21.1614815" id="Fill-2"></path>
                <path d="M22.1155556,7.12 C23.4103704,5.50074074 24.2962963,3.29777778 24.0503704,1.06222222 C22.1762963,1.14518519 19.8325926,2.35851852 18.482963,3.94222222 C17.2888889,5.33777778 16.2222222,7.62518519 16.4977778,9.7762963 C18.602963,9.93333333 20.7644444,8.71407407 22.1155556,7.12" id="Fill-3"></path>
            </g>
        </g>
    </g>
</svg>