<?xml version="1.0" encoding="UTF-8" standalone="no"?>
<svg width="96px" height="29px" viewBox="0 0 96 29" version="1.1" xmlns="http://www.w3.org/2000/svg" xmlns:xlink="http://www.w3.org/1999/xlink">
    <!-- Generator: Sketch 3.7.2 (28276) - http://www.bohemiancoding.com/sketch -->
    <title>UAN Logo White</title>
    <desc>Created with Sketch.</desc>
    <defs>
        <polygon id="path-1" points="0 0.118174648 95.8215211 0.118174648 95.8215211 28.9189859 0 28.9189859"></polygon>
    </defs>
    <g id="Welcome" stroke="none" stroke-width="1" fill="none" fill-rule="evenodd">
        <g id="login_tablet" transform="translate(-20.000000, -16.000000)">
            <g id="UAN-Logo-White" transform="translate(20.000000, 16.000000)">
                <g id="UAN_Logo_White">
                    <g id="Group-5">
                        <mask id="mask-2" fill="white">
                            <use xlink:href="#path-1"></use>
                        </mask>
                        <g id="Clip-2"></g>
                        <path d="M34.5226817,15.3261972 C34.561893,15.4741183 34.8342085,15.5736338 34.9172282,15.6279887 C34.9594141,15.5000789 35.0391887,15.4100282 35.0797521,15.2796845 C34.9594141,15.1677296 34.9226366,14.9735662 34.8477296,14.8161803 C34.677093,14.9108282 34.4667042,15.1152676 34.5226817,15.3261972 L34.5226817,15.3261972 Z M23.7969127,8.33847887 C23.7814986,8.22246761 23.6625127,8.25437746 23.5183775,8.15296901 C23.3371944,8.02505915 23.3239437,7.84576901 23.1005746,7.89741972 C23.0667718,7.91012958 23.0435155,7.93365634 23.0308056,7.96718873 C23.1100394,8.90068732 22.4867155,9.55051268 22.7287437,10.4510197 C23.0270197,10.2925521 23.3493634,10.1581521 23.5878761,9.93992113 C23.5843606,9.45451268 23.6035606,9.06023662 23.5648901,8.64027042 C23.652507,8.5080338 23.8161127,8.48694085 23.7969127,8.33847887 L23.7969127,8.33847887 Z M25.5611493,1.7220507 C25.5876507,1.8816 25.3204732,1.94785352 25.3058704,2.09334085 C25.2899155,2.25289014 25.610907,2.45624789 25.677431,2.67366761 C25.754231,2.92516056 25.668507,3.25291268 25.7006873,3.53225915 C25.7477408,3.94816901 26.2399099,4.54904789 25.8402254,4.92547606 C25.9843606,5.14181408 26.0343887,5.45198873 26.0719775,5.76108169 C26.1328225,6.26271549 26.2653296,6.79571831 26.2347718,7.3403493 C26.2231437,7.54424789 26.1295775,7.74625352 26.2580282,7.92040563 C26.5057352,7.90715493 26.6550085,7.67729577 26.8378141,7.52612958 C27.0062873,7.38686197 27.2507493,7.29545915 27.3954254,7.13077183 C27.4608676,7.05613521 27.4841239,6.94607324 27.5576789,6.85223662 C27.7469746,6.61372394 28.0152338,6.2951662 28.4170817,6.27218028 C28.5874479,5.7516169 28.4995606,5.05852394 28.7186028,4.5312 C28.7689014,4.40896901 28.8903211,4.33865915 28.9511662,4.18262535 C28.9895662,4.0836507 28.9627944,3.96926197 28.997138,3.88137465 C29.0166085,3.83134648 29.2478197,3.5160338 29.2989296,3.48655775 C29.6877972,3.25696901 30.2824563,3.49926761 30.7616451,3.50927324 C30.9782535,3.51441127 31.1856676,3.40894648 31.3652282,3.48655775 C31.4974648,3.54334648 31.4604169,3.73183099 31.6902761,3.85784789 C31.8887662,3.96628732 32.1637859,3.90868732 32.2478873,4.11285634 C32.3222535,4.29512113 32.1962366,4.79837746 32.0845521,4.92547606 C31.9988282,5.02418028 31.8663211,4.97469296 31.7600451,5.1347831 C31.9725972,5.47524507 31.8235944,5.70645634 31.713262,6.17942535 C31.6559324,6.42632113 31.634569,6.71918873 31.5742648,6.8760338 C31.528293,6.99529014 31.4052507,7.06289577 31.3884845,7.17755493 C31.3690141,7.30979155 31.4823211,7.47393803 31.5044958,7.71163944 C31.5231549,7.91067042 31.4666366,8.13863662 31.4815099,8.2919662 C31.4942197,8.42447324 31.5683155,8.53291268 31.5742648,8.64027042 C31.5791324,8.72978028 31.528293,8.83740845 31.5280225,8.94206197 C31.5269408,9.0791662 31.5823775,9.21627042 31.5742648,9.33687887 C31.5529014,9.64894648 31.4117408,9.95533521 31.4117408,10.2189972 C31.4117408,10.4329014 31.5602028,10.6511324 31.5044958,10.9158761 C31.4498704,11.1738592 31.236507,11.5126986 31.2492169,11.704969 C31.2592225,11.851538 31.418231,11.9256338 31.4582535,12.0302873 C31.6648563,12.5673465 31.444462,13.3529239 31.5044958,14.0265465 C31.5564169,14.606062 31.6694535,15.1536676 31.6675606,15.6515155 C31.6662085,15.8402704 31.5996845,16.010907 31.5977915,16.1853296 C31.596169,16.3032338 31.6451155,16.4151887 31.6437634,16.5106479 C31.6399775,16.8854535 31.4490592,17.3787042 31.713262,17.6945577 C32.1508056,17.5866592 32.3038648,16.9825352 32.5723944,16.5566197 C32.6391887,16.4516958 32.748169,16.3843606 32.8046873,16.2780845 C32.8606648,16.1742423 32.8625577,16.0282141 32.9206986,15.930862 C32.968293,15.8502761 33.0872789,15.8013296 33.1294648,15.7210141 C33.1673239,15.6493521 33.1416338,15.5344225 33.1759775,15.4424789 C33.217893,15.3324169 33.3341746,15.2483155 33.3620282,15.1642141 C33.4358535,14.942738 33.4031324,14.7285634 33.5012958,14.5371042 C33.5572732,14.4278535 33.708169,14.3399662 33.7563042,14.2120563 C33.7952451,14.110107 33.760631,13.9646197 33.8030873,13.8402254 C33.8647437,13.658231 34.0356507,13.5127437 34.0816225,13.3529239 C34.1622085,13.0716845 34.1059606,12.6611831 34.4764394,12.5632901 C34.6230085,12.7620507 34.8131155,13.1760676 34.8707155,13.4689352 C34.9050592,13.644169 34.833938,13.8372507 34.9869972,13.864293 C35.1830535,13.8986366 35.2852732,13.2539493 35.3117746,13.0516732 C35.3647775,12.6528 35.3128563,12.3834592 35.4980958,12.1690141 C35.3055549,11.8436958 35.6476394,11.6276282 35.6603493,11.2176676 C35.6641352,11.0921915 35.6073465,10.9707718 35.6138366,10.8463775 C35.6203268,10.7279324 35.6941521,10.6146254 35.7065915,10.4980732 C35.7228169,10.3466366 35.6598085,10.1681577 35.6603493,9.98670423 C35.6606197,9.84932958 35.7347155,9.70843944 35.7301183,9.59242817 C35.7217352,9.38447324 35.6000451,9.18814648 35.5905803,9.01210141 C35.5659718,8.55887324 35.6435831,8.13403944 35.7301183,7.73462535 C35.762569,7.58427042 35.8574873,7.43229296 35.8693859,7.27030986 C35.8877746,7.0139493 35.7739268,6.77570704 36.0083831,6.62075493 C35.8718197,6.08531831 35.8845296,5.20969014 35.8923718,4.62395493 C35.896969,4.28322254 35.9862085,3.9443831 35.9618704,3.64881127 C35.9424,3.40705352 35.7306592,3.11607887 35.7760901,2.83619155 C35.8426141,2.43028732 36.3428958,2.28669296 36.8212732,2.44191549 C36.9318761,2.47761127 36.9992113,2.58821408 37.099538,2.60443944 C37.2125746,2.62228732 37.3077634,2.55576338 37.4248563,2.55765634 C37.5067944,2.55846761 37.605769,2.61309296 37.7266479,2.62742535 C37.831031,2.63986479 37.965431,2.60443944 38.0514254,2.62742535 C38.1455324,2.65176338 38.1928563,2.75073803 38.3069746,2.81320563 C38.3899944,2.85809577 38.4843718,2.8716169 38.5389972,2.90596056 C38.6106592,2.95112113 38.6963831,3.07362254 38.7945465,3.1379831 C38.9805972,3.26102535 39.1963944,3.27643944 39.258862,3.41651831 C39.3748732,3.67747606 39.1723268,3.92031549 39.1658366,4.13665352 C39.1571831,4.43114366 39.2942873,4.77052394 39.1658366,5.11179718 C39.0671324,5.37464789 38.8643155,5.57205634 38.6782648,5.80786479 C38.5760451,5.93739718 38.4200113,6.04935211 38.3997296,6.15643944 C38.3556507,6.39035493 38.6133634,6.55828732 38.6552789,6.78327887 C38.7247775,7.15510986 38.5660394,7.54424789 38.5389972,7.94312113 C38.5262873,8.13458028 38.5941634,8.31278873 38.5855099,8.47828732 C38.5668507,8.84416901 38.3275268,9.01345352 38.2372056,9.33687887 C38.3621408,9.62704225 38.4443493,9.90449577 38.3767437,10.2652394 C38.3521352,10.3955831 38.2388282,10.5113239 38.2142197,10.6365296 C38.1731155,10.8444845 38.2520789,11.0389183 38.2142197,11.2406535 C38.1961014,11.3336789 38.1233577,11.4231887 38.097938,11.5191887 C37.9719211,12.0054085 38.0571042,12.4867606 38.0284394,13.0281465 C38.0203268,13.1836394 37.9264901,13.3345352 37.9124282,13.4927324 C37.8967437,13.6698592 37.9578592,13.8672676 37.9356845,14.0500732 C37.9240563,14.1417465 37.8705127,14.2231437 37.8426592,14.328338 C37.8131831,14.4384 37.8280563,14.5682028 37.7961465,14.6528451 C37.7507155,14.7753465 37.6241577,14.8443042 37.5871099,14.9781634 C37.536,15.1642141 37.5435718,15.4376113 37.5641239,15.6279887 C37.5754817,15.7383211 37.6433577,15.8424338 37.6336225,15.9538479 C37.6236169,16.0704 37.5268056,16.1655887 37.4708282,16.2780845 C37.408631,16.4035606 37.3991662,16.5217352 37.2855887,16.5806873 C37.336969,16.7240113 37.4535211,16.7199549 37.5173408,16.8589521 C37.6241577,17.0893521 37.5760225,17.447662 37.8196732,17.5090479 C38.0617014,17.5696225 38.4348845,17.1948169 38.6084958,17.0907042 C38.8913577,16.9214197 39.1020169,16.8059493 39.3518873,16.6266592 C39.4722254,16.5401239 39.5709296,16.3911211 39.7231775,16.3021521 C39.8805634,16.2083155 40.0890592,16.1655887 40.257262,16.0463324 C40.379493,15.9592563 40.4790085,15.8416225 40.6050254,15.7445408 C40.7202254,15.6561127 40.8535437,15.5766085 40.9768563,15.4895324 C41.3765408,15.2042366 41.7210592,14.8178028 42.1145239,14.5838873 C42.2445972,14.5065465 42.6429296,14.3088676 42.741093,14.3515944 C42.8652169,14.4048676 42.8416901,14.6198535 42.9036169,14.7228845 C43.0142197,14.8318648 43.187831,14.6563606 43.3452169,14.7458704 C43.5031437,15.026569 43.3633352,15.3697352 43.2754479,15.6050028 C43.2148732,15.7675268 43.0701972,15.9019268 42.9736563,16.0693183 C42.8995606,16.1972282 42.8757634,16.3351437 42.8111324,16.4176225 C42.6480676,16.6266592 42.3192338,16.7315831 42.021769,16.9514366 C41.8029972,17.1136901 41.649938,17.3722141 41.4644282,17.5090479 C41.3624789,17.5836845 41.2072563,17.6361465 41.1161239,17.6945577 C40.7629521,17.920631 40.4022085,18.3230197 40.0714817,18.5531493 C39.8064676,18.7378479 39.5338817,18.7762479 39.4678986,19.1340169 C39.2777915,19.1418592 39.2096451,19.3270986 39.0733521,19.4358085 C39.0138592,19.4834028 38.9213746,19.5017915 38.8407887,19.5518197 C38.7239662,19.6248338 38.6201239,19.7532845 38.5157408,19.8070986 C38.4548958,19.838738 38.3561915,19.838738 38.260462,19.8768676 C38.0625127,19.9552901 37.9673239,20.0921239 37.7266479,20.1086197 C37.3796958,20.1329577 36.9067268,20.0101859 36.4726986,19.9696225 C36.3007099,19.9536676 36.1241239,19.9977465 35.9618704,19.9696225 C35.8299042,19.946907 35.7163268,19.8376563 35.5673239,19.7841127 C35.3704563,19.7127211 35.1476282,19.7467944 34.9869972,19.6218592 C34.8928901,19.4539268 34.9986254,19.3084394 35.0102535,19.1340169 C35.0340507,18.7805746 34.8818028,18.189431 34.8477296,17.8576225 C34.8285296,17.6726535 34.881262,17.2997408 34.708462,17.2534986 C34.4715718,17.1902197 34.4934761,17.4498254 34.4064,17.6247887 C34.3282479,17.7827155 34.1065014,17.882231 33.9888676,18.0891042 C33.9412732,18.1729352 33.9518197,18.2948958 33.8958423,18.3914366 C33.7944338,18.5647775 33.5534873,18.7178366 33.4780394,18.948507 C33.4418028,19.058569 33.4753352,19.1964845 33.4317972,19.296 C33.3301183,19.5280225 32.9823549,19.5447887 32.8509296,19.7373296 C32.9417915,19.8717296 33.1175662,19.7914141 33.153262,19.946907 C33.1959887,20.1362028 32.9599099,20.2092169 32.8279437,20.3411831 C32.5669859,20.6024113 32.5310197,20.798738 32.0615662,20.8752676 C31.7692394,20.9231324 31.2724732,20.9404394 31.0171944,20.8982535 C30.8895549,20.8771606 30.6986366,20.7470873 30.5755944,20.7130141 C30.2729915,20.6294535 29.8827718,20.6445972 29.6937465,20.5499493 C29.4490141,20.4282592 29.1780507,20.1105127 29.066907,19.8538817 C28.9776676,19.6483606 28.8892394,19.2308282 28.8578704,18.9247099 C28.8397521,18.751369 28.8416451,18.5428732 28.8578704,18.3914366 C28.8684169,18.2938141 28.9319662,18.1924056 28.927369,18.0891042 C28.9238535,17.997431 28.8470535,17.9030535 28.8348845,17.810569 C28.7951324,17.5147268 28.9338592,17.1894085 28.927369,16.8589521 C28.9238535,16.6615437 28.8232563,16.4617014 28.8116282,16.2780845 C28.7808,15.7986254 29.0482479,15.3621634 28.997138,14.9083944 C28.984969,14.7994141 28.8932958,14.6901634 28.8813972,14.5838873 C28.8686873,14.4730141 28.9311549,14.3718761 28.927369,14.258569 C28.9173634,13.9359549 28.7459155,13.6122592 28.7651155,13.2604394 C28.7851268,12.8907718 28.9511662,12.5481465 28.7883718,12.2155268 C28.7916169,12.103031 28.8751775,12.0705803 28.8813972,11.9605183 C28.8613859,11.8331493 28.7740394,11.8293634 28.7651155,11.704969 C28.7567324,11.5905803 28.8573296,11.474569 28.8578704,11.3566648 C28.8586817,11.2330817 28.7524056,11.0984113 28.7186028,10.938862 C28.6612732,10.6673577 28.7845859,10.3466366 28.7418592,10.1262423 C28.7196845,10.0126648 28.620169,9.92775211 28.5793352,9.82418028 C28.5128113,9.65489577 28.5401239,9.47046761 28.4170817,9.38339155 C27.8735324,9.33309296 27.7558986,9.89989859 27.4416676,10.1492282 C27.3562141,10.2165634 27.2350648,10.2271099 27.1398761,10.2882254 C26.977893,10.3931493 26.7150423,10.638693 26.6525746,10.776338 C26.5552225,10.9888901 26.5874028,11.5172958 26.606062,11.8669521 C26.6239099,12.2063324 26.6974648,12.5481465 26.6990873,12.8196507 C26.6993577,12.9640563 26.6490592,13.1060282 26.6525746,13.2144676 C26.6571718,13.3618479 26.7328901,13.4843493 26.7450592,13.6317296 C26.759662,13.8037183 26.7423549,14.0162704 26.7218028,14.1885296 C26.7080113,14.3121127 26.6349972,14.4194704 26.6293183,14.5371042 C26.6128225,14.8702648 26.7683155,15.1612394 26.7683155,15.4895324 C26.7683155,15.6434028 26.6844845,15.7913239 26.675831,15.9538479 C26.6471662,16.4781972 26.9229972,17.0704225 26.606062,17.5317634 C26.7407324,17.7210592 26.6533859,17.9511887 26.675831,18.1588732 C26.6882704,18.2794817 26.7729127,18.3895437 26.7918423,18.5071775 C26.8764845,19.0385577 26.6598761,19.5209915 26.4897803,19.9931493 C26.5130366,20.1397183 26.5960563,20.1802817 26.606062,20.2952113 C26.6304,20.5750986 26.3234704,20.9039324 26.3272563,21.1543437 C26.3286085,21.2441239 26.4735549,21.3671662 26.4897803,21.4791211 C26.5008676,21.554569 26.4405634,21.6754479 26.4432676,21.7806423 C26.4465127,21.8988169 26.5119549,22.0248338 26.513307,22.1289465 C26.5146592,22.2528 26.4305577,22.4137014 26.4200113,22.5702761 C26.4105465,22.7157634 26.4605746,22.8636845 26.4432676,22.987538 C26.4248789,23.1243718 26.3134648,23.2498479 26.3042704,23.3828958 C26.2780394,23.7441803 26.565769,24.5513915 26.3272563,24.8683268 C26.2591099,24.9591887 25.9529915,25.0016451 25.9324394,25.1471324 C25.9051268,25.3431887 26.3994592,25.672293 26.1882592,26.0522366 C26.1422873,26.2296338 25.9113465,26.2418028 25.7472,26.3080563 C25.653093,26.3451042 25.560338,26.4270423 25.445138,26.4475944 C25.2493521,26.4811268 25.0819606,26.3791775 24.8880676,26.3772845 C24.6836282,26.3759324 24.4864901,26.4897803 24.2844845,26.4475944 C24.1214197,26.412169 24.0100056,26.2050254 23.8431549,26.3080563 C23.7228169,26.138231 23.4542873,26.1271437 23.3788394,25.9597521 C23.3112338,25.8093972 23.3688338,25.4743437 23.4253521,25.2626028 C23.5035042,24.9716282 23.743369,24.5294873 23.7506704,24.2420282 C23.7541859,24.096 23.6708958,23.9991887 23.6803606,23.870738 C23.6955042,23.6781972 23.8634366,23.4729465 23.8896676,23.2663437 C23.9242817,22.9924056 23.8404507,22.7176563 23.8431549,22.430738 C23.8450479,22.2068282 23.8582986,21.9415437 23.8896676,21.7338592 C23.9248225,21.5050817 24.0638197,21.3041577 24.0286648,20.945307 C24.0148732,20.798738 23.9080563,20.6340507 23.9129239,20.4569239 C23.9164394,20.3306366 24.0100056,20.215707 24.0286648,20.0856338 C24.0548958,19.9028282 24.0078423,19.672969 24.0286648,19.4585239 C24.0397521,19.3471099 24.0973521,19.2300169 24.0987042,19.1340169 C24.0997859,19.015031 24.0346141,18.904969 24.0286648,18.7857127 C24.017307,18.5377352 24.1690141,18.3205859 24.1684732,18.0891042 C24.1671211,17.7970479 23.9751211,17.4427944 24.0056789,17.0907042 C24.0281239,16.8389408 24.2414873,16.3616451 24.1917296,16.0228056 C24.1706366,15.8808338 24.0086535,15.7475155 23.982693,15.6279887 C23.9618704,15.5344225 23.9916169,15.4140845 23.982693,15.3032113 C23.9721465,15.1717859 23.9191437,15.0300845 23.9129239,14.9083944 C23.8964282,14.5955155 24.0110873,14.2823662 23.982693,13.9800338 C23.9661972,13.806693 23.8791211,13.6298366 23.8431549,13.4689352 C23.802862,13.2909972 23.813138,13.1071099 23.7036169,12.9586479 C23.3672113,13.0238197 23.1787268,13.3764507 22.8912676,13.5627718 C22.8206873,13.607662 22.7268507,13.6068507 22.6589746,13.6552563 C22.3623211,13.8680789 22.2592901,14.2910197 22.0088789,14.5371042 C22.1508507,14.9692394 21.9374873,15.4005634 21.893138,15.8378366 C21.875831,16.0052282 21.921262,16.1777577 21.9163944,16.3481239 C21.9104451,16.5390423 21.823369,16.7096789 21.8001127,16.9049239 C21.7822648,17.0539268 21.8155268,17.1958986 21.8001127,17.3462535 C21.7641465,17.6999662 21.669769,18.0563831 21.6381296,18.4374085 C21.5956732,18.9379606 21.4815549,19.3246648 21.5215775,19.7841127 C21.5889127,20.5599549 21.5080563,21.317138 21.4520789,22.0123944 C21.3847437,22.8425915 21.6621972,24.0419155 20.8019831,24.1725296 C20.5521127,24.2095775 20.109431,24.2439211 19.7108282,24.2185014 C19.3879437,24.1974085 18.9888,24.1955155 18.8051831,24.1257465 C18.6307606,24.0586817 18.5631549,23.8872338 18.3873803,23.8472113 C18.1431887,23.790693 17.9044056,23.9145465 17.7605408,23.7303887 C17.6612958,22.8260958 18.0225803,22.1827606 18.3178817,21.5951324 C18.1918648,21.329307 18.3400563,21.0924169 18.3641239,20.8517408 C18.3792676,20.7000338 18.3227493,20.5507606 18.341138,20.4106817 C18.3573634,20.2876394 18.4639099,20.165138 18.4806761,20.0391211 C18.4996056,19.8903887 18.4457915,19.692169 18.4568789,19.5055775 C18.4679662,19.3189859 18.5171831,19.1418592 18.5033915,18.9944789 C18.4912225,18.8587268 18.4128,18.7291944 18.4106366,18.6002028 C18.4092845,18.5101521 18.4671549,18.4068507 18.4806761,18.2981408 C18.4952789,18.1769915 18.4601239,18.0488113 18.4806761,17.973093 C18.5144789,17.8454535 18.6802479,17.7656789 18.7124282,17.6483155 C18.7473127,17.5204056 18.6929577,17.3597746 18.7356845,17.2305127 C18.7781408,17.1023324 18.9174085,17.0596056 18.9444507,16.9279099 C19.0177352,16.5739268 18.7105352,16.2456338 18.4806761,16.115831 C18.3919775,16.0660732 18.2148507,16.0528225 18.0855887,15.9995493 C17.9549746,15.9460056 17.761893,15.8397296 17.5515042,15.7675268 C17.1818366,15.6406986 16.9441352,15.5874254 17.0874592,15.2104563 C17.1374873,15.0782197 17.2640451,15.054693 17.3892507,14.9083944 C17.4417127,14.8472789 17.4484732,14.7466817 17.5049915,14.6769127 C17.7272789,14.4016225 17.978231,14.3418592 18.2481127,14.1193014 C18.5777577,13.8477972 18.8057239,13.4813746 19.1069746,13.1904 C19.2043268,13.0976451 19.4082254,13.0081352 19.4552789,12.8888789 C19.4993577,12.7766535 19.4647437,12.6070986 19.4785352,12.4710761 C19.5274817,12.0016225 19.8189972,11.5716507 19.6875718,11.1008451 C19.7381408,10.9813183 19.9017465,10.9745577 19.9663775,10.8693634 C19.9720563,10.6265239 19.9025577,10.4261408 19.9198648,10.1727549 C19.9309521,10.010231 20.0661634,9.88232113 20.0821183,9.73169577 C20.095369,9.61027606 20.0402028,9.50913803 20.0358761,9.38339155 C20.0256,9.11567324 20.0450704,8.73572958 20.128631,8.45449014 C20.1986704,8.21814085 20.2900732,8.01424225 20.3603831,7.68865352 C20.4187944,7.42174648 20.4396169,7.14294085 20.4999211,6.85223662 C20.6102535,6.3227493 20.7670986,5.80353803 20.9182648,5.22699718 C20.9993915,4.91574085 21.0513127,4.73212394 21.0805183,4.32216338 C21.112969,3.86785352 21.2736,3.67585352 21.4055662,3.34701972 C21.4136789,3.32646761 21.4277408,3.27995493 21.4288225,3.27752113 C21.5429408,2.83700282 21.7522479,2.30183662 21.8001127,1.86077746 C21.8520338,1.38212958 21.6576,0.626028169 21.823369,0.352360563 C21.8793465,0.259335211 22.1889803,0.134940845 22.3574535,0.119797183 C22.5489127,0.102490141 22.6879099,0.225802817 22.8912676,0.259335211 C23.2868958,0.323695775 23.7152451,0.25284507 24.0751775,0.352360563 C24.1752338,0.379673239 24.3264,0.477566197 24.446738,0.538140845 C24.5730254,0.601149296 24.7350085,0.644146479 24.8180282,0.700123944 C24.9056451,0.757994366 24.9586479,0.889419718 25.0505915,0.9792 C25.1528113,1.07871549 25.2755831,1.12847324 25.3293972,1.21122254 C25.4410817,1.38212958 25.4462197,1.60036056 25.5611493,1.7220507 L25.5611493,1.7220507 Z" id="Fill-1" fill="#FFFFFF" mask="url(#mask-2)"></path>
                        <path d="M63.1947718,15.4895324 C63.1109408,15.6755831 62.9508507,15.8548732 62.9159662,16.0463324 C62.892169,16.1777577 62.9275944,16.337307 62.9159662,16.4871211 C62.8897352,16.8424563 62.7967099,17.2002254 62.8229408,17.5090479 C62.8378141,17.6696789 62.9192113,17.8459944 62.8932507,18.0196056 C62.874862,18.1399437 62.7274817,18.2435155 62.7307268,18.3914366 C62.7326197,18.4971718 62.8827042,18.7262197 62.9630197,18.8552113 C63.2285746,19.2835606 63.5593014,19.1629521 63.9606085,18.9247099 C64.1672113,18.8030197 64.3854423,18.7416338 64.5412056,18.6461746 C64.6991324,18.5499042 64.8294761,18.3273465 65.0293183,18.1818592 C65.4217014,17.8960225 65.7232225,17.6180282 66.0739606,17.3227268 C66.2529803,17.171831 66.3849465,16.9874028 66.5615324,16.8589521 C66.6542873,16.7910761 66.782738,16.7670085 66.8635944,16.6964282 C66.948507,16.6207099 66.9812282,16.4719775 67.0720901,16.3711099 C67.2183887,16.2096676 67.451493,16.1123155 67.5823775,15.9768338 C67.6394366,15.9173408 67.6805408,15.8061972 67.7457127,15.7210141 C67.807369,15.6390761 67.8960676,15.5679549 67.9542085,15.4895324 C68.1072676,15.2807662 68.1962366,14.9984451 68.3487549,14.8161803 C68.4772056,14.6620394 68.6900282,14.5733408 68.7665577,14.4443493 C68.8928451,14.2301746 69.1605634,13.3329127 68.8601239,13.1444282 C68.6362141,13.003538 67.9847662,13.1368563 67.7457127,13.1904 C67.5545239,13.233938 67.3690141,13.336969 67.187831,13.3764507 C66.9961014,13.4183662 66.7881465,13.408631 66.5847887,13.4689352 C66.3254535,13.5473577 66.0850479,13.6817577 65.8184113,13.7244845 C65.4933634,13.7766761 65.1623662,13.7512563 64.9124958,13.8402254 C64.7862085,13.8861972 64.6885859,13.9992338 64.564462,14.0500732 C64.2418479,14.1809577 63.8794817,14.2050254 63.6131155,14.3978366 C63.5355042,14.8643155 63.3629746,15.1160789 63.1947718,15.4895324 L63.1947718,15.4895324 Z M48.5916845,10.7525408 C48.5735662,10.8425915 48.7025577,10.8425915 48.6844394,10.7525408 C48.6211606,10.7555155 48.6384676,10.7144113 48.5916845,10.7525408 L48.5916845,10.7525408 Z M76.2185915,9.93992113 C76.2137239,9.97345352 76.1810028,9.97967324 76.1726197,10.0096901 C76.241307,10.5659493 76.0585014,10.8712563 75.9405972,11.2406535 C76.4000451,11.2812169 76.5844732,10.8482704 76.7994592,10.5675718 C76.7461859,10.4137014 76.5696,10.4261408 76.4746817,10.3117521 C76.3811155,10.200338 76.4203268,10.0142873 76.2653746,9.93992113 L76.2185915,9.93992113 L76.2185915,9.93992113 Z M76.1953352,9.38339155 L76.2653746,9.38339155 C76.2718648,9.32254648 76.2569915,9.28333521 76.1953352,9.29090704 L76.1953352,9.38339155 L76.1953352,9.38339155 Z M55.8122366,9.19707042 C55.8379268,9.58729014 55.6256451,10.0878423 55.7651831,10.4280338 C55.9209465,10.4434479 56.0223549,10.4061296 56.0905014,10.3352789 C56.1015887,10.0835155 55.9869296,9.82742535 55.9515042,9.59242817 C55.9309521,9.45613521 55.9934197,9.28306479 55.8582085,9.19707042 L55.8122366,9.19707042 L55.8122366,9.19707042 Z M78.8890141,1.30370704 C79.0231437,1.60901408 78.9301183,1.91107606 78.981769,2.23260845 C79.0161127,2.44543099 79.1921577,2.60335775 79.2143324,2.78967887 C79.2548958,3.1320338 79.0929127,3.55091831 79.2143324,3.9276169 C79.5739944,4.0152338 79.9790873,3.8567662 80.3979718,3.7883493 C81.0464451,3.68180282 81.9196394,3.74967887 82.4174873,3.46303099 C82.4407437,2.84376338 82.6422085,2.4024338 83.3704563,2.4876169 C83.5035042,2.55387042 83.5748958,2.70395493 83.7417465,2.7431662 C83.8304451,2.76425915 83.9561915,2.72315493 84.0659831,2.7431662 C84.1744225,2.76317746 84.2625803,2.86215211 84.3675042,2.88297465 C84.5102873,2.90974648 84.6549634,2.86756056 84.7858479,2.90596056 C84.9992113,2.96707606 85.0446423,3.21261972 85.226907,3.27752113 C85.3932169,3.33593239 85.764507,3.30050704 86.0397972,3.30050704 C86.8794592,3.30050704 87.9195042,3.05847887 88.7323944,2.97572958 C88.9003268,2.95869296 89.0531155,2.9868169 89.1972507,2.97572958 C89.6539944,2.93949296 90.1926761,2.87432113 90.7289239,2.85917746 C91.0044845,2.85133521 91.2924845,2.87864789 91.5656113,2.85917746 C92.0488563,2.82564507 92.3925634,2.75506479 92.9117746,2.72018028 C93.1927437,2.7012507 93.5334761,2.6712338 93.8404056,2.62742535 C94.1535549,2.58226479 94.4556169,2.42677183 94.6532958,2.44191549 C94.7657915,2.44975775 95.0473014,2.58226479 95.2098254,2.67366761 C95.2985239,2.72315493 95.3634254,2.82158873 95.4653746,2.90596056 C95.6741408,3.07713803 95.8615437,3.12987042 95.8142197,3.50927324 C95.7739268,3.59337465 95.5811155,3.5244169 95.5113465,3.57877183 C95.4448225,3.65151549 95.5743549,3.82377465 95.4653746,3.88137465 C95.214693,3.78023662 94.9764507,3.93194366 94.7227944,3.9276169 C94.5786592,3.9251831 94.4539944,3.81890704 94.3044507,3.81133521 C94.1641014,3.80376338 94.0356507,3.88218592 93.8863775,3.90436056 C93.5945915,3.94816901 93.2414197,3.93275493 92.8885183,3.97358873 C92.4590873,4.02280563 92.1194366,4.07499718 91.6810817,4.08987042 C91.4963831,4.0955493 91.2924845,4.16802254 91.0774986,4.18262535 C90.753262,4.20507042 90.3670986,4.21480563 90.0796394,4.22967887 C89.560969,4.25455775 89.1453296,4.2491493 88.6858817,4.20561127 C88.4957746,4.18857465 88.2042592,4.13773521 88.1060958,4.15963944 C87.9892732,4.18505915 87.9132845,4.37110986 87.8270197,4.41437746 C87.5333408,4.56446197 87.1182423,4.43655211 86.759662,4.50794366 C86.6133634,4.53687887 86.5108732,4.6788507 86.3645746,4.7399662 C86.2531606,4.78593803 86.0868507,4.79053521 85.9467718,4.83272113 C85.8137239,4.87274366 85.6985239,4.95522254 85.5981972,4.97225915 C85.2458366,5.03175211 84.9210592,4.87950423 84.7160789,5.18102535 C84.6920113,5.37167324 84.7790873,5.50607324 84.7625915,5.69212394 C84.7515042,5.8176 84.6576676,5.9027831 84.6471211,6.01636056 C84.6300845,6.18267042 84.7198648,6.35790423 84.7160789,6.52772958 C84.7082366,6.89820845 84.5386817,7.20540845 84.4610704,7.54884507 C84.6127775,7.96908169 84.5581521,8.47828732 84.6000676,8.96504789 C84.619538,9.19139155 84.7171606,9.4163831 84.7160789,9.6384 C84.7160789,9.77631549 84.6490141,9.91017465 84.6471211,10.0567437 C84.6449577,10.1622085 84.6960676,10.2717296 84.6933634,10.3812507 C84.6882254,10.5429634 84.5973634,10.7019718 84.5773521,10.8693634 C84.5016338,11.4991775 84.5292169,12.2341859 84.5302986,12.9351211 C84.5313803,13.2785577 84.4416,13.6219944 84.4372732,13.934062 C84.4340282,14.222062 84.5124507,14.4900507 84.4843268,14.7458704 C84.4710761,14.8667493 84.4018479,14.9603155 84.3913014,15.0711887 C84.3807549,15.1812507 84.434569,15.2932056 84.4145577,15.3956958 C84.384,15.5514592 84.1522479,15.6301521 84.1590085,15.8140394 C84.1633352,15.921938 84.347493,16.0263211 84.3675042,16.1393577 C84.3818366,16.2115606 84.3550648,16.4168113 84.3215324,16.5106479 C84.2682592,16.6580282 84.1051944,16.7164394 84.0659831,16.8589521 C83.9835042,17.1604732 84.0432676,17.5596169 84.0194704,17.9035944 C84.0127099,18.0066254 83.9656563,18.1245296 83.9497014,18.2518986 C83.8948056,18.7154028 84.0305577,19.296 83.9267155,19.6218592 C83.8848,19.7530141 83.7339042,19.8528 83.6714366,19.9696225 C83.5213521,20.2530254 83.4423887,20.5780732 83.2303775,20.7130141 C82.7593014,20.8000901 82.6057014,20.5737465 82.3945014,20.3411831 C82.3041803,20.2411268 82.1784338,20.1591887 82.1392225,20.0626479 C82.0548507,19.8511775 82.087031,19.473938 82.0694535,19.1570028 C82.0521465,18.8457465 82.0394366,18.5217803 81.9999549,18.2748845 C81.9729127,18.1045183 81.8820507,17.9265803 81.8836732,17.810569 C81.8874592,17.6256 82.0510648,17.3957408 82.092169,17.2075268 C82.1862761,16.7845859 82.1657239,16.1582873 82.2793014,15.6750423 C82.3298704,15.4549183 82.4383099,15.2510197 82.4407437,15.0941746 C82.4434479,14.9505803 82.346907,14.8261859 82.3252732,14.6769127 C82.2722704,14.3207662 82.346907,13.8267042 82.3485296,13.5157183 C82.3515042,12.6528 82.392338,11.6627831 82.3252732,10.8223099 C82.3136451,10.6779042 82.3160789,10.5345803 82.3252732,10.4050479 C82.3382535,10.2046648 82.4329014,10.0326761 82.4407437,9.82418028 C82.4512901,9.55429859 82.389093,9.18057465 82.4174873,8.82578028 C82.4523718,8.40392113 82.4277634,7.86578028 82.3945014,7.3403493 C82.3817915,7.13212394 82.3120225,6.93606761 82.3020169,6.73649577 C82.293093,6.5688338 82.346907,6.39224789 82.3485296,6.20268169 C82.3498817,5.97687887 82.2809239,5.75296901 82.3020169,5.55258592 C82.3141859,5.43549296 82.392338,5.31975211 82.3485296,5.20401127 C82.0764845,5.12558873 81.8055211,5.22970141 81.5361803,5.2967662 C81.2708958,5.36383099 80.9720789,5.36707606 80.7232901,5.46010141 C80.5986254,5.50607324 80.4972169,5.62046197 80.3747155,5.66805634 C80.2505915,5.71808451 80.1026704,5.71889577 79.980169,5.76108169 C79.7719437,5.83490704 79.5829183,5.92576901 79.3757746,5.99364507 C79.1810704,6.05827606 78.9506704,6.07585352 78.7959887,6.22566761 C78.8552113,6.72865352 78.7489352,7.26571268 78.7494761,7.78167887 C78.7494761,7.98070986 78.8065352,8.1683831 78.7959887,8.36146479 C78.7900394,8.47450141 78.7283831,8.59619155 78.7267606,8.70976901 C78.7256789,8.83632676 78.8116732,8.95206761 78.8197859,9.08132958 C78.8303324,9.26900282 78.7002592,9.47560563 78.8425014,9.61541408 C79.1156282,9.7368338 79.3584676,9.45451268 79.6088789,9.33687887 C79.687031,9.29956056 79.7919549,9.30632113 79.8644282,9.26710986 C79.9790873,9.20491268 80.0821183,9.07267606 80.212462,8.96504789 C80.4434028,8.77521127 80.6164732,8.67542535 80.6070085,8.33847887 C80.901769,8.28087887 81.2890141,8.01207887 81.5361803,8.22246761 C81.6381296,8.30954366 81.612169,8.45530141 81.6511099,8.59375775 C81.6924845,8.73248451 81.7706366,8.81415211 81.7679324,8.91880563 C81.7246648,9.06618592 81.5361803,9.04265915 81.4193577,9.10431549 C81.2303324,9.20572394 80.6846197,9.75035493 80.6070085,9.96371831 C80.5621183,10.0883831 80.6080901,10.1968225 80.5837521,10.2882254 C80.5483268,10.4196507 80.411493,10.6200338 80.3054873,10.706569 C80.1956958,10.795538 80.0623775,10.7736338 79.9341972,10.8693634 C79.7895211,10.9764507 79.7678873,11.2263211 79.6088789,11.3566648 C79.4049803,11.5240563 79.0680338,11.5502873 78.8425014,11.7279549 C78.5755944,12.2869183 78.7865239,13.1668732 78.8425014,14.0035606 C78.8819831,14.5968676 78.9579718,15.2296563 79.0044845,15.8378366 C79.0315268,16.178569 79.0198986,16.5060507 79.0288225,16.812169 C79.0399099,17.2437634 79.2194704,17.5387944 79.1672789,18.0196056 C79.1534873,18.1499493 79.0542423,18.2884056 79.051538,18.4144225 C79.0488338,18.5558535 79.1613296,18.6832225 79.1445634,18.8322254 C79.1280676,18.976631 78.9904225,19.0528901 78.9357972,19.1805296 C78.9052394,19.2519211 78.794907,19.6159099 78.7959887,19.667831 C78.798693,19.7562592 78.8957746,19.8108845 78.9357972,19.946907 C78.9655437,20.0502085 78.9374197,20.1627042 78.9585127,20.2251718 C79.0188169,20.4052732 79.1899944,20.5296676 79.2143324,20.736 C79.2621972,21.1519099 79.224338,21.5232 79.0980507,21.9428958 C78.981769,22.020507 78.7283831,21.9599324 78.5872225,22.0123944 C78.2429746,22.4707606 78.7224338,23.2944676 78.5404394,23.8242254 C78.4839211,23.9897239 78.3903549,24.0324507 78.2857014,24.1955155 C78.290569,24.3166648 78.3903549,24.5019042 78.2857014,24.5897915 C77.8546479,24.832631 77.3535549,24.6133183 77.2405183,24.2420282 C77.1883268,24.0667944 77.2234817,23.7982648 77.1480338,23.5451493 C77.0731268,23.2958197 76.7767437,22.8745014 77.0082254,22.5702761 C77.0160676,22.4315493 76.9241239,22.3912563 76.9157408,22.2687549 C77.1391099,21.9750761 77.1069296,21.310107 77.1480338,20.736 C77.1867042,20.1956958 77.1353239,19.5134197 77.1009803,18.9017239 C77.0422986,17.8405859 76.9641465,16.8294761 76.9622535,15.8140394 C76.9611718,15.3716282 77.1158535,15.0617239 77.0777239,14.5603606 C77.0366197,14.0041014 76.7916169,13.5143662 76.5909634,13.1214423 C76.180462,13.3169577 75.3724394,13.2763944 75.2672451,13.7707268 C75.2407437,13.895662 75.3037521,14.0222197 75.3137577,14.1885296 C75.3554028,14.8821634 74.9546366,15.6680113 74.7569577,16.4176225 C74.7196394,16.5585127 74.7307268,16.7140056 74.6869183,16.8354254 C74.647707,16.9444056 74.5108732,17.054738 74.4543549,17.184 C74.4067606,17.2932507 74.4170366,17.4573972 74.3613296,17.5788169 C74.3240113,17.6615662 74.2182761,17.7272789 74.1760901,17.810569 C74.0260056,18.1066817 74.0122141,18.3243718 73.8275155,18.3914366 C73.5354592,18.4969014 73.3521127,18.2865127 73.1319887,18.2748845 C73.0073239,18.2689352 72.9291718,18.3254535 72.8301972,18.3213972 C72.7109408,18.3159887 72.6138592,18.241893 72.4583662,18.2048451 C72.3036845,18.168338 72.1057352,18.1848338 71.9710648,18.1358873 C71.3755944,17.9176563 71.1638535,16.960631 71.2279437,16.115831 C71.2601239,15.6904563 71.2890592,15.2366873 71.3439549,14.8624225 C71.3737014,14.6585239 71.5405521,14.4308282 71.3672113,14.2355831 C71.1733183,14.2950761 71.1660169,14.4968113 71.0651493,14.6528451 C70.9604958,14.8156394 70.8125746,14.9603155 70.6938592,15.1412282 C70.5851493,15.3056451 70.4161352,15.4854761 70.3452845,15.6515155 C70.3098592,15.736969 70.3304113,15.8397296 70.2993127,15.930862 C70.1962817,16.2264338 69.844462,16.8219042 69.578907,16.9749634 C69.4907493,17.0255324 69.3744676,17.0368901 69.2773859,17.0677183 C69.198693,17.1318085 69.2181634,17.2832451 69.1616451,17.3692394 C69.0204845,17.5847662 68.750062,17.592338 68.4644958,17.7175437 C68.1829859,17.8422085 68.1635155,18.1339944 68.0007211,18.3443831 C67.9066141,18.4663437 67.720293,18.4923042 67.5823775,18.6231887 C67.5126085,18.6902535 67.4988169,18.8146479 67.4433803,18.878738 C67.3974085,18.9322817 67.3008676,18.9582423 67.2348845,19.0185465 C67.0764169,19.1594366 66.9130817,19.3633352 66.7002592,19.4825915 C66.622107,19.5258592 66.5255662,19.531538 66.4452507,19.5748056 C66.3195042,19.643493 66.2467606,19.7892507 66.1204732,19.8538817 C66.0058141,19.912293 65.8346366,19.9133746 65.7026704,19.9696225 C65.568,20.0272225 65.4717296,20.1516169 65.3540958,20.2021859 C65.1834592,20.2752 64.8854535,20.3000789 64.6115155,20.3411831 C64.1634254,20.4085183 63.6818028,20.5353465 63.1252732,20.4569239 C63.0052056,20.4406986 62.8948732,20.3530817 62.7772394,20.3411831 C62.6293183,20.3260394 62.4841014,20.3879662 62.3361803,20.3874254 C61.9467718,20.3860732 61.5960338,20.1821746 61.2907268,20.0391211 C61.1138704,19.9563718 60.8959099,19.8468507 60.8039662,19.7373296 C60.7463662,19.6702648 60.7252732,19.5518197 60.6638873,19.4585239 C60.5048789,19.2194704 60.256631,18.9752789 60.1768563,18.7627268 C60.0032451,18.299493 59.9729577,17.6483155 60.0841014,17.184 C60.177938,16.7905352 60.4129352,16.3121577 60.4088789,15.8140394 C60.2609577,15.550107 60.074907,15.8148507 59.7585127,15.8608225 C59.4548282,15.9049014 59.0846197,15.7023549 58.8534085,15.7675268 C58.6416676,15.8272901 58.6657352,16.1234028 58.528631,16.2091268 C58.6311211,16.4254648 58.7990535,16.6856113 58.8068958,16.9749634 C58.8112225,17.1299155 58.7054873,17.2978479 58.7144113,17.4630761 C58.718738,17.5547493 58.797431,17.6431775 58.8068958,17.7405296 C58.8417803,18.0891042 58.7371268,18.5225915 58.7609239,18.948507 C58.7793127,19.2884282 58.7609239,19.585893 58.7371268,19.946907 C58.7238761,20.1535099 58.7752563,20.3536225 58.7609239,20.5269634 C58.7338817,20.8484958 58.5702761,21.1556958 58.5746028,21.4561352 C58.5786592,21.7119549 58.7217127,21.9664225 58.5053746,22.1519324 C57.8339155,22.2322479 57.2557521,22.3544789 56.6478423,22.1289465 C56.5110085,21.8209352 56.6789408,21.4926423 56.6935437,21.1543437 C56.699493,21.0350873 56.6440563,20.9050141 56.6478423,20.7825127 C56.6535211,20.589431 56.7792676,20.3966197 56.7876507,20.2021859 C56.7919775,20.0875268 56.7338366,19.9782761 56.7405972,19.8768676 C56.7492507,19.7419268 56.877431,19.6118535 56.8801352,19.4825915 C56.8822986,19.3360225 56.6889465,19.1175211 56.6708282,18.8552113 C56.6624451,18.737307 56.6989521,18.6166986 56.6935437,18.5071775 C56.6773183,18.1120901 56.5394028,17.6907718 56.5553577,17.2997408 C56.5599549,17.1623662 56.6297239,17.0084958 56.6251268,16.881938 C56.6153915,16.6436958 56.4501634,16.3938254 56.4385352,16.115831 C56.4179831,15.6139268 56.5245296,15.0855211 56.4623324,14.5603606 C56.4496225,14.455707 56.3768789,14.3418592 56.369307,14.2355831 C56.3598423,14.0957746 56.4333972,13.9521803 56.4385352,13.8172394 C56.4517859,13.5086873 56.3968901,13.1509183 56.4158197,12.8426366 C56.4223099,12.734738 56.4685521,12.6111549 56.4623324,12.5175887 C56.4555718,12.4132056 56.3671437,12.2733972 56.3233352,12.1227718 C56.2595155,11.905893 56.2627606,11.4107493 56.0905014,11.2871662 C56.0023437,11.2233465 55.7906028,11.1933296 55.7424676,11.3566648 C55.687031,11.5440676 55.8733521,11.5116169 55.8814648,11.6819831 C55.6383549,11.8180056 55.6616113,12.4188845 55.7889803,12.8196507 C55.8327887,12.9586479 55.9707042,13.0505915 55.9980169,13.1674141 C56.0772507,13.5127437 55.8828169,14.1406648 55.8582085,14.6769127 C55.8522592,14.8042817 55.8838986,14.9178592 55.8814648,15.0482028 C55.8765972,15.3597296 55.7037972,15.6144676 55.6732394,15.9067944 C55.6267268,16.3432563 55.7032563,16.7970254 55.6732394,17.1604732 C55.6578254,17.3273239 55.5585803,17.498231 55.5564169,17.6483155 C55.5523606,17.9809352 55.7846535,18.2445972 55.835493,18.5531493 C55.8671324,18.7467718 55.7803268,19.013138 55.7889803,19.2035155 C55.7957408,19.3855099 55.8909296,19.5564169 55.8582085,19.7611268 C55.8016901,20.1186254 55.4198535,20.954231 55.1156282,21.0607775 C54.8254648,21.1621859 54.3787268,21.0934986 54.0242028,21.2003155 C53.848969,21.2527775 53.7875831,21.4320676 53.6058592,21.4561352 C53.344631,21.4896676 53.2916282,21.3176789 53.0958423,21.2233014 C53.0001127,21.1776 52.8475944,21.1832789 52.7245521,21.1308169 C52.3976113,20.990738 52.3167549,20.7538479 51.9349183,20.9212394 C51.8324282,20.6370254 51.5752563,20.4244732 51.4938592,20.0856338 C51.4727662,19.9955831 51.4938592,19.8817352 51.4706028,19.7841127 C51.3729803,19.3682028 51.1041803,18.8662986 50.9592338,18.4374085 C50.9027155,18.2675831 50.8986592,18.0839662 50.8437634,17.950107 C50.796169,17.8305803 50.6625803,17.7243042 50.6344563,17.6018028 C50.6033577,17.4617239 50.6414873,17.3051493 50.6117408,17.184 C50.574693,17.032293 50.4310986,16.9338592 50.4027042,16.7891831 C50.3402366,16.4752225 50.481938,16.2107493 50.5419718,15.9538479 C50.3794479,15.8094423 50.4638197,15.6425915 50.3794479,15.3956958 C50.3402366,15.281307 50.1871775,15.1766535 50.1011831,15.0482028 C50.0154592,14.920293 49.9083718,14.8224 49.8453634,14.6998986 C49.6092845,14.2355831 49.4978704,13.4302648 49.3115493,12.8656225 C49.2666592,12.7282479 49.1476732,12.5892507 49.1254986,12.4710761 C49.073307,12.1903775 49.1657915,11.9102197 49.0789859,11.6819831 C49.0140845,11.507831 48.8683268,11.3985803 48.6384676,11.2871662 C48.5292169,11.3985803 48.6306254,11.525138 48.6152113,11.6589972 C48.6057465,11.7355268 48.532462,11.8090817 48.5224563,11.8904789 C48.513262,11.9605183 48.5714028,12.0475944 48.568969,12.1227718 C48.5630197,12.2387831 48.4832451,12.3634479 48.4759437,12.4710761 C48.4583662,12.715538 48.5213746,12.9702761 48.5224563,13.2374535 C48.523538,13.7047437 48.3650704,14.1641915 48.4061746,14.6528451 C48.4188845,14.8048225 48.4664789,14.9449014 48.4759437,15.0941746 C48.5065014,15.6033803 48.4099606,16.0217239 48.4986592,16.4871211 C48.5138028,16.567707 48.5762704,16.6542423 48.5916845,16.7429408 C48.6052056,16.8200113 48.5719437,16.9149296 48.5916845,16.9979493 C48.6460394,17.2237521 48.8339831,17.3716732 48.6844394,17.6713014 C48.640631,17.7605408 48.5540958,17.7846085 48.4986592,17.880338 C48.4045521,18.0450254 48.4251042,18.225938 48.3131493,18.3213972 C48.3312676,18.4690479 48.4854085,18.5388169 48.4986592,18.6699718 C48.511369,18.7935549 48.401307,18.9560789 48.3829183,19.0642479 C48.314231,19.4663662 48.3780507,19.859831 48.4288901,20.2021859 C48.4521465,20.3536225 48.5292169,20.5329127 48.6152113,20.6894873 C48.6814648,20.8103662 48.7817915,20.9144789 48.8001803,21.0377915 C48.839662,21.2846873 48.7331155,21.6159549 48.6844394,21.8969239 C48.6365746,22.1754592 48.5762704,22.4694085 48.568969,22.7325296 C48.5624789,22.965093 48.6622648,23.1638535 48.5451718,23.4058817 C48.4215887,23.5313577 48.3063887,23.4624 48.1506254,23.5451493 C48.0200113,23.6146479 47.9905352,23.7877183 47.8720901,23.8472113 C47.6603493,23.9526761 47.3028507,23.8615437 46.9899718,23.8937239 C46.8041915,23.9121127 46.5559437,24.0240676 46.3861183,24.0094648 C46.2609127,23.9983775 46.1546366,23.8731718 45.9913014,23.8472113 C45.8055211,23.8171944 45.6110873,23.8956169 45.434231,23.8472113 C45.2097803,23.7850141 44.933138,23.5164845 44.9004169,23.3358423 C44.8663437,23.1495211 44.9904676,22.8604394 45.0164282,22.5232225 C45.0453634,22.1484169 45.0053408,21.7525183 45.0396845,21.3863662 C45.0464451,21.310107 45.1151324,21.2146479 45.1324394,21.107831 C45.1494761,21.0034479 45.1137803,20.8963606 45.1324394,20.8284845 C45.1870648,20.632969 45.4250366,20.5334535 45.434231,20.3181972 C45.4399099,20.1908282 45.3349859,20.0837408 45.3182197,19.9696225 C45.2898254,19.7738366 45.3863662,19.624293 45.4109746,19.4128225 C45.4436958,19.1361803 45.3501296,18.8086986 45.434231,18.5301634 C45.4704676,18.4119887 45.6116282,18.2978704 45.6200113,18.1818592 C45.6283944,18.0655775 45.5240113,17.9260394 45.5272563,17.810569 C45.5313127,17.6737352 45.6216338,17.5961239 45.6432676,17.486062 C45.696,17.2161803 45.690862,16.8283944 45.6432676,16.5336338 C45.6043268,16.2910648 45.4182761,16.1642366 45.4574873,15.7445408 C45.4774986,15.5314479 45.5175211,15.2702197 45.5502423,15.0711887 C45.5675493,14.9668056 45.6567887,14.8686423 45.6665239,14.7696676 C45.6759887,14.6682592 45.6089239,14.5544113 45.6200113,14.4676056 C45.6343437,14.3580845 45.7530592,14.2545127 45.7592789,14.1422873 C45.7665803,14.0176225 45.6554366,13.8986366 45.6432676,13.7707268 C45.6281239,13.6168563 45.6876169,13.1568676 45.7130366,12.8888789 C45.7298028,12.7112113 45.8655549,12.5500394 45.875831,12.3777803 C45.8882704,12.1490028 45.7206085,11.9740394 45.7828056,11.6819831 C45.8187718,11.5116169 45.957769,11.3661296 45.9683155,11.1938704 C45.9756169,11.073262 45.8812394,10.9859155 45.875831,10.8693634 C45.8704225,10.7736338 45.9469521,10.634907 45.9450592,10.5210592 C45.9428958,10.3790873 45.8647437,10.2565859 45.875831,10.1727549 C45.8939493,10.0272676 46.0226704,9.99427606 46.0843268,9.87096338 C46.0037408,9.73926761 46.078107,9.52644507 46.0610704,9.35986479 C46.0361915,9.1175662 45.8709634,8.95206761 45.8525746,8.75574085 C45.8193127,8.41149296 45.9923831,8.13863662 46.0378141,7.87416338 C46.1005521,7.51477183 46.0472789,7.07479437 46.1078535,6.64401127 C46.1240789,6.52772958 46.2103437,6.41334085 46.2238648,6.2951662 C46.2360338,6.19024225 46.1916845,6.07882817 46.2006085,5.97065915 C46.2084507,5.86546479 46.2765972,5.77730704 46.2933634,5.66805634 C46.3363606,5.38979155 46.2506366,5.02418028 46.2703775,4.71643944 C46.2787606,4.57906479 46.3204056,4.45548169 46.3166197,4.3451493 C46.3017465,3.93627042 46.1029859,3.52036056 46.3861183,3.20748169 C46.3723268,3.05415211 46.2728113,2.95112113 46.2703775,2.78967887 C46.2676732,2.64283944 46.4139718,2.46138592 46.4323606,2.30183662 C46.4667042,2.01491831 46.2490141,1.56006761 46.4794141,1.32669296 C46.7268507,1.07547042 47.5102648,1.28369577 47.987831,1.21122254 C48.1511662,1.18634366 48.2155268,1.09845634 48.3829183,1.09494085 C48.7198648,1.08736901 48.7912563,1.34427042 49.0330141,1.42025915 C49.173093,1.46352676 49.2999211,1.41376901 49.4275606,1.44324507 C49.6157746,1.48786479 49.9351437,1.67067042 49.9843606,1.74503662 C50.0571042,1.85509859 50.1390423,2.39864789 50.1474254,2.55765634 C50.1650028,2.90406761 50.0809014,3.29455775 50.1238986,3.64881127 C50.1468845,3.83783662 50.263707,4.02659155 50.3329352,4.25266479 C50.4603042,4.66451831 50.4770704,5.14668169 50.5187155,5.64507042 C50.5511662,6.02717746 50.6993577,6.35925634 50.680969,6.8292507 C50.6771831,6.93390423 50.6287775,7.03504225 50.6344563,7.13077183 C50.6433803,7.2768 50.7469521,7.40930704 50.750738,7.52612958 C50.7558761,7.67107606 50.6725859,7.75193239 50.680969,7.85117746 C50.6915155,7.96854085 50.8310535,8.04858592 50.8675606,8.19948169 C50.9313803,8.46692958 50.8975775,8.69192113 50.8675606,8.8728338 C51.0311662,9.06267042 51.0522592,9.32687324 51.1452845,9.59242817 C51.189093,9.71682254 51.3137577,9.81092958 51.3543211,9.93992113 C51.3824451,10.0278085 51.3570254,10.1457127 51.3775775,10.2417127 C51.4219268,10.4434479 51.4879099,10.6454535 51.5403718,10.8693634 C51.5863437,11.064338 51.7172282,11.2330817 51.7726648,11.4261634 C51.8651493,11.7504 51.8678535,12.177938 51.9581746,12.5175887 C51.9914366,12.6427944 52.0833803,12.755831 52.0974423,12.8656225 C52.1128563,12.9875831 52.0574197,13.1555155 52.0747268,13.2836958 C52.0963606,13.4613634 52.2396845,13.6182085 52.3062085,13.7707268 C52.4154592,14.021138 52.4535887,14.4405634 52.6077296,14.8388958 C52.6715493,15.0033127 52.8294761,15.3037521 52.9330479,15.3261972 C53.0090366,15.3429634 53.2134761,15.2661634 53.2583662,15.1642141 C53.3281352,15.0046648 53.2178028,14.8048225 53.1888676,14.6298592 C53.1523606,14.4154141 53.1242366,13.9935549 53.1888676,13.7477408 C53.220507,13.6263211 53.402231,13.5143662 53.4206197,13.4459493 C53.4533408,13.3264225 53.390062,13.1841803 53.3973634,13.0746592 C53.4152113,12.8112676 53.5663775,12.5481465 53.5601577,12.2847549 C53.5574535,12.1833465 53.4833577,12.0795042 53.4903887,11.9835042 C53.4987718,11.8545127 53.6504789,11.7490479 53.676169,11.6122141 C53.7270085,11.3442254 53.5912563,10.8804507 53.5601577,10.4745465 C53.527707,10.0524169 53.6272225,9.69383662 53.6529127,9.33687887 C53.6926648,8.79224789 53.6539944,8.38093521 53.6994254,7.78167887 C53.7216,7.48691831 53.8684394,7.19891831 53.8616789,7.01530141 C53.8562704,6.86007887 53.7305239,6.70431549 53.7221408,6.52772958 C53.7083493,6.20781972 53.8084056,5.9495662 53.8616789,5.69212394 C54.0612507,5.6699493 53.9371268,5.97201127 54.0939718,5.99364507 C54.2651493,5.94848451 54.2270197,5.75432113 54.3259944,5.62208451 C54.4606648,5.44333521 54.6523944,5.30271549 54.9998873,5.2967662 C55.4466254,5.29027606 55.8925521,5.35707042 55.9980169,5.69212394 C56.3038648,5.55420845 56.6002479,5.6472338 56.9964169,5.64507042 C57.3019944,5.64425915 57.6089239,5.50688451 57.8317521,5.59882817 C57.9977915,5.66724507 58.0937915,5.97931268 58.2500958,6.13345352 C58.4629183,6.34276056 58.6895324,6.40225352 58.9231775,6.52772958 C59.0811042,6.91740845 58.8907268,7.31168451 58.8068958,7.66485634 C58.7392901,7.95015211 58.7593014,8.19704789 58.5518873,8.33847887 C58.744969,8.82199437 58.8196056,9.36229859 58.8301521,10.0337577 C58.8333972,10.2433352 58.7455099,10.4539944 58.7371268,10.6600563 C58.7171155,11.1716958 58.6965634,11.7755493 58.7371268,12.2847549 C58.7530817,12.4848676 58.8580056,12.6687549 58.8766648,12.8656225 C58.9172282,13.2974873 58.8290704,13.7488225 59.0624451,14.1193014 C59.5738141,14.0260056 59.9932394,13.8002028 60.4553915,13.6087437 C60.9748732,13.3929465 61.269093,13.2344789 61.523831,12.7490704 C61.6157746,12.5730254 61.7301634,12.3610141 61.7788394,12.192 C61.8586141,11.9145465 61.8210254,11.5892282 61.941093,11.3101521 C62.003831,11.1627718 62.1660845,11.0627155 62.2431549,10.9158761 C62.2807437,10.8425915 62.2769577,10.7390197 62.3129239,10.6600563 C62.3751211,10.5218704 62.5057352,10.4061296 62.5679324,10.2652394 C62.6550085,10.0691831 62.6422986,9.83094085 62.7307268,9.61541408 C62.7829183,9.48642254 62.9335437,9.40096901 62.9862761,9.26710986 C63.1049915,8.96504789 63.0728113,8.60836056 63.1717859,8.31495211 C63.2080225,8.20705352 63.3059155,8.11105352 63.3575662,7.99017465 C63.3951549,7.89931268 63.3919099,7.79222535 63.4273352,7.71163944 C63.4789859,7.59076056 63.5825577,7.49016338 63.635831,7.36333521 C63.9914366,6.5171831 64.3240563,5.58395493 64.704,4.90249014 C64.7751211,4.77430986 64.9695549,4.64694085 65.0525746,4.50794366 C65.1174761,4.39707042 65.1163944,4.24103662 65.1913014,4.13665352 C65.258907,4.04200563 65.5606986,3.84676056 65.7951549,3.7883493 C65.906569,3.75968451 66.0734197,3.78510423 66.2129577,3.76428169 C66.3676394,3.74183662 66.4885183,3.69072676 66.6080451,3.69532394 C66.8930704,3.70614085 67.2643606,3.88975775 67.6288901,3.9276169 C68.1391775,3.97980845 68.6113352,3.95925634 68.9293521,4.08987042 C69.0713239,4.14828169 69.1440676,4.31864789 69.3011831,4.41437746 C69.4277408,4.49198873 69.5689014,4.46738028 69.6486761,4.60096901 C69.5567324,5.05609014 69.0542873,4.87950423 68.7200451,5.01877183 C68.542107,5.09286761 68.421769,5.38221972 68.2324732,5.57557183 C68.0961803,5.71592113 67.9030986,5.88087887 67.768969,5.97065915 C67.6699944,6.03583099 67.4942197,6.06584789 67.4201239,6.13345352 C67.2859944,6.25433239 67.2281239,6.50176901 67.2110873,6.66699718 C66.952293,6.98798873 66.7905803,7.4052507 66.6080451,7.85117746 C66.5171831,8.07103099 66.3543887,8.24545352 66.2592,8.45449014 C66.2107944,8.56238873 66.2124169,8.70679437 66.1664451,8.82578028 C66.1193915,8.9496338 66.021769,9.04022535 65.9803944,9.15109859 C65.9100845,9.34255775 65.9081915,9.54645634 65.8184113,9.70843944 C65.6329014,10.0413296 65.2937915,10.2565859 65.1675042,10.5675718 C65.0947606,10.750107 65.1253183,10.9553577 65.075831,11.123831 C64.9425127,11.5711099 64.5760901,11.7709521 64.4016676,12.192 C64.8,12.4137465 65.1775099,12.1549521 65.5160789,12.0532732 C66.2070085,11.8455887 67.0288225,11.7290366 67.9542085,11.7279549 C68.1697352,11.7279549 68.388507,11.8180056 68.6275606,11.8207099 C68.7654761,11.8226028 68.8874366,11.7655437 69.022107,11.774738 C69.3566197,11.7963718 69.6659831,11.9983775 69.9739944,12.0532732 C70.1979042,12.0930254 70.4034254,12.0619268 70.600293,12.1227718 C70.9775324,12.2387831 71.1771042,12.5065014 71.4829521,12.6793014 C71.6498028,12.5997972 71.7122704,12.5175887 71.7385014,12.3777803 C71.7744676,12.1825352 71.652507,12.0197408 71.6452056,11.8439662 C71.6387155,11.666569 71.7617577,11.3831662 71.8077296,11.123831 C71.848293,10.8980282 71.8399099,10.6998085 71.8542423,10.4980732 C71.879662,10.1457127 71.9910761,9.90530704 71.9937803,9.52265915 C71.9951324,9.3479662 72.0676056,9.19355493 72.0865352,9.01210141 C72.197138,7.9763831 71.9718761,6.84006761 72.3883268,6.13345352 C72.3729127,5.9987831 72.2682592,5.91143662 72.2493296,5.78487887 C72.2171493,5.57557183 72.2998986,5.37627042 72.3190986,5.15776901 C72.3364056,4.95035493 72.2920563,4.7099493 72.3190986,4.48414648 C72.3407324,4.29917746 72.4548507,4.12367324 72.4583662,3.95060282 C72.4605296,3.82485634 72.3988732,3.7223662 72.3883268,3.60229859 C72.3791324,3.49926761 72.4194254,3.39407324 72.4118535,3.27752113 C72.3934648,3.00250141 72.2766423,2.69827606 72.2953014,2.4876169 C72.3120676,2.30670423 72.5259718,2.04439437 72.6433352,2.00058592 C72.7912563,1.94487887 73.3383211,1.90404507 73.5727775,1.95407324 C73.7150197,1.98409014 73.8353577,2.15743099 74.0143775,2.20908169 C74.2885859,2.28939718 74.6217465,2.2439662 74.8726986,2.37187606 C75.0106141,2.44218592 75.0592901,2.54738028 75.1742197,2.62742535 C75.2842817,2.65717183 75.4405859,2.63986479 75.5227944,2.69719437 C75.8370254,3.31943662 75.3770366,3.9251831 75.3137577,4.43844507 C75.2842817,4.67560563 75.3142986,4.91168451 75.2672451,5.15776901 C75.2461521,5.26756056 75.168,5.36383099 75.1509634,5.48308732 C75.1379831,5.57854648 75.1625915,5.71646197 75.1509634,5.85437746 C75.1304113,6.10478873 75.0390085,6.43876056 75.0814648,6.59749859 C75.1141859,6.7175662 75.3243042,6.75948169 75.3597296,6.89901972 C75.4051606,7.07290141 75.2815775,7.34224225 75.2439887,7.50233239 C75.1963944,7.70866479 75.2001803,7.92905915 74.9884394,7.96718873 C74.7766986,7.58427042 75.2539944,7.2900507 75.0814648,6.94607324 C74.9730254,6.93850141 74.7247775,7.2059493 74.7099042,7.36333521 C74.6942197,7.5323493 74.8754028,7.70569014 74.8029296,7.92040563 C74.574693,8.06102535 74.2488338,8.35876056 74.3386141,8.70976901 C74.3916169,8.91664225 74.6498704,8.86526197 74.8029296,9.01210141 C74.6455437,9.41908732 74.5024901,9.84094648 74.2691155,10.1727549 C74.2447775,10.3101296 74.4743662,10.3323042 74.5473803,10.4745465 C74.6166085,10.6089465 74.5784789,10.8298817 74.6404056,11.0313465 C74.6820507,11.1668282 74.8188845,11.265262 74.8261859,11.3566648 C74.8399775,11.5297352 74.6777239,11.5632676 74.6869183,11.704969 C74.9424676,11.8734423 75.0706479,11.5805746 75.1049915,11.3796507 C75.3053746,11.2871662 75.4976451,11.233893 75.5227944,11.0313465 C75.5603831,10.7295549 75.1780056,10.4826592 75.2207324,10.0567437 C75.2477746,9.79335211 75.4108394,9.71249577 75.4067831,9.40637746 C75.4795268,9.32443944 75.6972169,9.38771831 75.8013296,9.33687887 C75.9919775,9.04265915 76.0768901,8.66028169 76.126107,8.24545352 C76.1539606,8.01424225 76.0822986,7.77762254 76.1033915,7.54884507 C76.1185352,7.3787493 76.2396845,7.22352676 76.2653746,7.06127324 C76.2951211,6.87792676 76.229138,6.6732169 76.2423887,6.48067606 C76.2518535,6.34384225 76.3256789,6.22539718 76.3584,6.0864 C76.5152451,5.42305352 76.5141634,4.74185915 76.2185915,4.22967887 C76.3527211,4.01415211 76.4425014,3.65719437 76.428169,3.25399437 C76.4143775,2.86458592 76.2121014,2.45029859 76.2185915,2.11632676 C76.2210254,2.01491831 76.3018817,1.91350986 76.3124282,1.79181972 C76.3483944,1.34589296 76.2880901,1.1027831 76.5909634,0.862377465 C76.8665239,0.644146479 77.4898479,1.00029296 77.7048338,1.07195493 C78.0839662,1.1963493 78.5655887,1.0968338 78.8890141,1.30370704 L78.8890141,1.30370704 Z" id="Fill-3" fill="#FFFFFF" mask="url(#mask-2)"></path>
                        <path d="M7.98638873,8.98857465 C7.90418028,9.18246761 7.87713803,9.47749859 7.8011493,9.80119437 C7.73922254,10.0632338 7.62780845,10.331493 7.56831549,10.5445859 C7.53856901,10.6519437 7.55452394,10.8050028 7.52207324,10.9618479 C7.46771831,11.2282141 7.27842254,11.6725183 7.66161127,11.6122141 C7.74409014,11.598693 7.78735775,11.4580732 7.8936338,11.3796507 C8.10077746,11.2282141 8.33144789,11.2211831 8.3111662,10.9158761 C8.30602817,10.8263662 8.20516056,10.7355042 8.19542535,10.6365296 C8.18731268,10.5564845 8.23625915,10.469138 8.24220845,10.3812507 C8.2500507,10.2471211 8.20975775,10.1073127 8.21868169,9.96371831 C8.24085634,9.59837746 8.29385915,9.17327324 8.07941408,8.94206197 C8.03614648,8.94557746 8.00180282,8.95720563 7.98638873,8.98857465 L7.98638873,8.98857465 Z M8.21868169,8.75574085 C8.3411831,8.63918873 8.3987831,8.4563831 8.45070423,8.26898028 C8.15378028,7.9655662 7.77762254,8.72329014 8.21868169,8.75574085 L8.21868169,8.75574085 Z M11.8869634,9.61541408 C12.0316394,9.54943099 12.1690141,9.55835493 12.2582535,9.45289014 C12.3347831,9.36202817 12.3296451,9.20491268 12.3977915,9.10431549 C12.5592338,8.86661408 12.945938,8.76466479 13.1176563,8.54724507 C13.3832113,8.21056901 13.6292958,7.79979718 13.9765183,7.5948169 C14.0952338,7.29924507 14.3613296,7.07236056 14.5103324,6.78327887 C14.5836169,6.64022535 14.7485746,6.32734648 14.7656113,6.22566761 C14.7796732,6.14102535 14.7396507,6.02528451 14.7423549,5.92387606 C14.750738,5.59152676 14.8332169,5.19373521 14.8118535,4.92547606 C14.7707493,4.39815211 14.5476507,4.07256338 14.2085408,3.83486197 C13.941093,3.64718873 13.6885183,3.35945915 13.3494085,3.44004507 C13.2298817,3.46789859 12.9846085,3.7764507 12.9316056,3.90436056 C12.8526423,4.09527887 12.9059155,4.29322817 12.792338,4.48414648 C12.7320338,4.58528451 12.6211606,4.6020507 12.5600451,4.69345352 C12.4981183,4.7867493 12.5519324,4.89627042 12.4210479,4.99524507 C12.2550085,4.98280563 12.2590648,4.80108169 12.0957296,4.78593803 C11.9845859,4.86895775 12.0589521,5.13613521 11.9334761,5.20401127 C11.822062,5.19157183 11.8666817,5.02309859 11.724169,5.04175775 C11.5640789,5.2356507 11.6841465,5.57340845 11.5849014,5.8308507 C11.5481239,5.92658028 11.4407662,5.99094085 11.422107,6.0864 C11.3853296,6.28272676 11.4626704,6.54314366 11.4459042,6.78327887 C11.4237296,7.09723944 11.3450366,7.43526761 11.3296225,7.73462535 C11.3188056,7.94258028 11.3693746,8.16054085 11.3526085,8.3844507 C11.3123155,8.93935775 11.0562254,9.48750423 11.3066366,9.89340845 C11.5213521,9.94938592 11.7011831,9.70059718 11.8869634,9.61541408 L11.8869634,9.61541408 Z M10.6562704,16.8354254 C10.7963493,17.0274254 10.7357746,17.1588507 10.7027831,17.416293 C10.6743887,17.6383099 10.7298254,17.9282028 10.7027831,18.1358873 C10.6854761,18.2719099 10.5718986,18.4044169 10.5632451,18.5301634 C10.5518873,18.6986366 10.6616789,18.8711662 10.6330141,19.0415324 C10.6051606,19.2094648 10.4577803,19.317093 10.3780056,19.4128225 C10.7471324,19.7381408 10.3341972,20.126738 10.3547493,20.6894873 C10.3615099,20.8933859 10.4631887,21.0907944 10.4477746,21.2695437 C10.4318197,21.4436958 10.3136451,21.6135211 10.3082366,21.7806423 C10.2971493,22.1257014 10.4877972,22.432631 10.2384676,22.6860169 C10.3796282,22.8834254 10.2390085,23.1803493 10.2152113,23.4288676 C10.1703211,23.896969 10.2528,24.458907 10.1919549,25.0075944 C10.132462,25.5454648 10.0272676,25.9427155 10.0992,26.4008113 C10.1221859,26.5481915 10.2035831,26.6869183 10.2152113,26.8418704 C10.2327887,27.0752451 10.221431,27.4027268 10.1919549,27.607707 C10.1773521,27.7120901 10.0932507,27.8235042 10.0529577,27.9560113 C9.93532394,28.3389296 9.96669296,28.3903099 9.7511662,28.6758761 C9.65570704,28.8021634 9.53347606,28.9181746 9.4488338,28.9314254 C9.25358873,28.9625239 9.08917183,28.7916169 8.84552113,28.768631 C8.6616338,28.7515944 8.49370141,28.8416451 8.3579493,28.8156845 C8.22300845,28.7886423 8.16540845,28.6272 8.05615775,28.5595944 C7.8803831,28.4506141 7.70650141,28.4892845 7.61509859,28.3502873 C7.52856338,27.8670423 7.59157183,27.4365296 7.54532958,26.9578817 C7.5347831,26.8497127 7.46501408,26.7485746 7.45257465,26.6331042 C7.40552113,26.1931268 7.6583662,25.7566648 7.61509859,25.3326423 C7.59833239,25.1701183 7.46258028,25.0092169 7.45257465,24.8453408 C7.44446197,24.7168901 7.50368451,24.6062873 7.52207324,24.4499831 C7.55344225,24.1865915 7.488,23.8956169 7.52207324,23.661431 C7.54614085,23.4967437 7.6908169,23.3428732 7.70812394,23.1733183 C7.72651268,22.9856451 7.61618028,22.8001352 7.61509859,22.593262 C7.61428732,22.4942873 7.65539155,22.3828732 7.66161127,22.2687549 C7.67864789,21.9569577 7.60698592,21.6200113 7.63835493,21.3863662 C7.66161127,21.2135662 7.76896901,21.0629408 7.77762254,20.8982535 C7.79844507,20.5099268 7.65593239,20.0991549 7.73138028,19.7143437 C7.75220282,19.6069859 7.92500282,19.4652845 7.94014648,19.3430535 C7.95042254,19.259493 7.87659718,19.1131944 7.87064789,19.0185465 C7.85956056,18.8489915 7.9104,18.6786254 7.94014648,18.5071775 C7.96610704,18.3568225 8.05210141,18.1942986 8.05615775,18.0661183 C8.05940282,17.959031 7.9763831,17.8465352 7.96313239,17.7405296 C7.94366197,17.5836845 7.98584789,17.3732958 7.98638873,17.184 C7.98882254,16.6231437 7.99747606,16.1972282 8.19542535,15.7675268 C8.08347042,15.4616789 7.93933521,15.2315493 8.00991549,14.8388958 C8.03019718,14.7236958 8.15810704,14.616338 8.17243944,14.4911324 C8.18082254,14.4110873 8.1132169,14.2691155 8.10267042,14.1655437 C8.06724507,13.8226479 8.15134648,13.4908394 8.00991549,13.2836958 C7.90472113,13.1290141 7.15997746,12.9099718 6.8952338,13.0976451 C6.80058592,13.1655211 6.75731831,13.5138254 6.68619718,13.8172394 C6.62859718,14.0652169 6.58884507,14.356462 6.52394366,14.5603606 C6.44443944,14.8099606 6.28516056,15.0706479 6.24513803,15.2337127 C6.20430423,15.4013746 6.21971831,15.6090592 6.17536901,15.7210141 C6.10776338,15.8943549 5.89169577,15.9779155 5.85086197,16.115831 C5.81678873,16.229138 5.8727662,16.370569 5.85086197,16.4871211 C5.8259831,16.6196282 5.68536338,16.7394254 5.64182535,16.881938 C5.54501408,17.1958986 5.57313803,17.5382535 5.43278873,17.8335549 C5.37518873,17.9544338 5.24376338,18.0501634 5.17723944,18.1818592 C5.1180169,18.299493 5.12423662,18.4455211 5.06122817,18.5301634 C4.99064789,18.625893 4.76051831,18.7992338 4.59664225,18.9017239 C4.19587606,19.1524056 3.98440563,19.2308282 3.36621972,19.3200676 C3.1404169,19.3525183 2.85539155,19.4193127 2.71639437,19.4128225 C2.62580282,19.4079549 2.54116056,19.3260169 2.41433239,19.296 C2.3064338,19.2711211 2.18014648,19.3035718 2.06629859,19.2730141 C1.95326197,19.243538 1.83103099,19.1175211 1.64849577,19.0642479 C1.28261408,18.9582423 0.845070423,18.9111887 0.67308169,18.6929577 C0.595740845,18.5937127 0.546523944,18.4182085 0.464315493,18.2748845 C0.357498592,18.0891042 0.240676056,17.9249577 0.20903662,17.6713014 C0.164416901,17.3127211 0.192811268,16.7767437 0.138997183,16.3711099 C0.120338028,16.229138 0.0667943662,16.1047437 0.0700394366,15.9995493 C0.0740957746,15.8464901 0.186861972,15.7172282 0.185780282,15.559031 C0.184157746,15.3535099 0.0394816901,15.1644845 0.0700394366,14.9319211 C0.104112676,14.6663662 0.332349296,14.5227718 0.0930253521,14.258569 C0.249329577,13.656338 0.00486760563,13.0749296 -3.85933351e-14,12.4478197 C-0.00108169014,12.3136901 0.0411042254,12.192 0.0465126761,12.0532732 C0.0548957746,11.8331493 0.00621971831,11.6035606 0.023256338,11.3796507 C0.034884507,11.230107 0.0892394366,11.0838085 0.0930253521,10.938862 C0.096,10.804462 0.050028169,10.6816901 0.0465126761,10.5445859 C0.0237971831,9.62704225 0.0914028169,8.73032113 0.20903662,7.87416338 C0.223909859,7.76437183 0.278805634,7.6475493 0.278535211,7.54884507 C0.278264789,7.44527324 0.212822535,7.35035493 0.20903662,7.24732394 C0.206061972,7.16078873 0.247166197,7.04261408 0.255278873,6.94607324 C0.28475493,6.6156169 0.197138028,6.30517183 0.348033803,6.06341408 C0.208495775,5.50012394 0.262039437,5.04662535 0.394546479,4.48414648 C0.50136338,4.03389296 0.700935211,3.69289014 1.2539493,3.64881127 C1.56574648,3.62420282 2.02762817,3.69532394 2.3916169,3.67179718 C2.53358873,3.66233239 2.71260845,3.60554366 2.83267606,3.62582535 C2.97221408,3.64881127 3.1463662,3.82269296 3.27346479,3.88137465 C3.63015211,4.04200563 4.02226479,4.00658028 4.03984225,4.41437746 C4.05201127,4.70454085 3.74372958,5.06825915 3.66801127,5.31975211 C3.65232676,5.41467042 3.77320563,5.49201127 3.71452394,5.55258592 C3.61068169,5.91738592 3.52549859,6.28732394 3.38947606,6.71350986 C3.35188732,6.83249577 3.27887324,6.93660845 3.27346479,7.03855775 C3.26697465,7.16241127 3.34269296,7.28301972 3.3432338,7.40984789 C3.34377465,7.53559437 3.27265352,7.65620282 3.25047887,7.78167887 C3.14907042,8.35308169 3.1547493,9.11296901 3.08768451,9.73169577 C3.06767324,9.92126197 3.00277183,10.1151549 2.99492958,10.2882254 C2.98898028,10.4250592 3.05847887,10.567031 3.06442817,10.706569 C3.07713803,10.9737465 2.97762254,11.2311887 2.97167324,11.4962028 C2.9651831,11.815031 3.0168338,12.1957859 3.01818592,12.5632901 C3.02089014,13.322907 2.87891831,14.0930704 3.01818592,14.8388958 C3.20423662,14.8532282 3.42733521,14.8278085 3.55254085,14.7228845 C3.62852958,14.6585239 3.62663662,14.5360225 3.71452394,14.3748507 C3.78780845,14.2404507 3.89300282,14.1755493 3.92383099,14.0727887 C3.98251268,13.8737577 3.92031549,13.5822423 3.97034366,13.3764507 C4.06688451,12.9751437 4.32162254,12.5692394 4.43411831,12.1227718 C4.51308169,11.8109746 4.53417465,11.4924169 4.62016901,11.1938704 C4.68263662,10.9775324 4.78566761,10.8090592 4.80567887,10.6135437 C4.81892958,10.4834704 4.78999437,10.3571831 4.80567887,10.2189972 C4.81947042,10.1008225 4.88842817,9.98967887 4.89870423,9.87096338 C4.91141408,9.72277183 4.86246761,9.59296901 4.89870423,9.45289014 C4.93412958,9.31605634 5.07637183,9.23168451 5.13072676,9.08132958 C5.23159437,8.80576901 5.15127887,8.50695211 5.29352113,8.31495211 C4.95062535,7.94149859 5.24836056,7.56425915 5.47930141,7.13077183 C5.6339831,6.84060845 5.66291831,6.50825915 5.7575662,6.27218028 C5.79407324,6.18185915 5.89548169,6.09586479 5.92009014,6.01636056 C5.95524507,5.90413521 5.91387042,5.77406197 5.9436169,5.66805634 C5.98039437,5.5355493 6.11181972,5.42602817 6.15265352,5.2967662 C6.22025915,5.08394366 6.18510423,4.84597183 6.24513803,4.64694085 C6.31328451,4.42303099 6.47418592,4.24022535 6.52394366,4.02010141 C6.50339155,3.89381408 6.46012394,3.78943099 6.47743099,3.62582535 C6.70025915,3.46303099 6.84655775,3.36405634 7.22001127,3.39299155 C7.37063662,3.40543099 7.51423099,3.51089577 7.63835493,3.50927324 C7.76410141,3.50792113 7.86875493,3.37298028 8.00991549,3.34701972 C8.22327887,3.30699718 8.43420845,3.39028732 8.56698592,3.30050704 C8.76412394,3.16718873 8.66190423,2.7096338 8.72950986,2.39486197 C8.77169577,2.19691268 8.86039437,2.08009014 8.93827606,1.95407324 C9.3371493,1.73259718 9.77225915,1.90945352 10.2152113,1.88457465 C10.5113239,1.86753803 10.8331268,1.78262535 11.0976,1.67499718 C11.2622873,1.60901408 11.5045859,1.70014648 11.7474254,1.7220507 C12.6606423,1.80425915 13.6847324,1.83400563 14.5103324,2.09334085 C14.6417577,2.13444507 14.7729127,2.19285634 14.9048789,2.23260845 C15.0511775,2.27587606 15.2218141,2.27695775 15.3226817,2.32590423 C15.4362592,2.37944789 15.4605972,2.52277183 15.578231,2.62742535 C15.7256113,2.75776901 15.9819718,2.8716169 16.1820845,2.99871549 C16.576631,3.24939718 16.8135211,3.41462535 17.133431,3.74129577 C17.2553915,3.86596056 17.4189972,3.97602254 17.5049915,4.08987042 C17.5579944,4.15963944 17.5823324,4.26618592 17.6445296,4.3451493 C17.7408,4.46792113 17.8754704,4.53877183 17.9233352,4.62395493 C18.0452958,4.84137465 18.1502197,5.21023099 18.1321014,5.50607324 C18.0728789,6.47012958 17.5187831,7.5948169 16.8554366,8.17649577 C16.3732732,9.25061408 15.2118085,9.80795493 14.3478085,10.5445859 C14.0452056,10.8014873 13.7482817,10.9215549 13.4424338,11.1008451 C13.3142535,11.1765634 13.2036507,11.3234028 13.0938592,11.3796507 C13.0097577,11.4237296 12.8969915,11.4331944 12.8155944,11.4721352 C12.5359775,11.6070761 12.3301859,11.8169239 12.0957296,12.0064901 C11.6365521,12.1652282 11.0678535,12.3288338 10.9810479,12.8656225 C10.9331831,13.1663324 10.9869972,13.5473577 10.9810479,13.8872789 C10.9775324,14.1217352 10.9621183,14.4300169 10.8888338,14.6298592 C10.8574648,14.7150423 10.6662761,14.8302423 10.6562704,14.9319211 C10.6446423,15.0482028 10.7841803,15.0936338 10.7958085,15.2337127 C10.8036507,15.3316056 10.7244169,15.4500507 10.7260394,15.559031 C10.727662,15.6804507 10.802569,15.7994366 10.8190648,15.930862 C10.8617915,16.2802479 10.7630873,16.593938 10.6562704,16.8354254 L10.6562704,16.8354254 Z" id="Fill-4" fill="#FFFFFF" mask="url(#mask-2)"></path>
                    </g>
                    <path d="M62.2214348,4.81618508 C62.0676737,5.60377057 62.3837056,6.16628972 62.7246797,6.60439149 C62.9755685,6.68391298 63.1915383,6.74172011 63.5052227,6.83092502 C63.7024125,6.88697153 64.1824758,6.95710303 64.2106457,7.13433911 C64.2658119,7.46885754 63.5213617,7.71886605 63.0518622,7.66223266 C62.8907651,7.64345268 62.7637068,7.5489659 62.5985016,7.5111125 C62.3669797,7.45917411 61.9561676,7.40048666 61.7170162,7.38552137 C61.5908382,7.37759856 61.4602587,7.43188445 61.3393625,7.41046353 C60.9972147,7.35001546 60.6406885,6.88638466 60.2809345,6.68039173 C60.0051035,6.52252251 59.7553884,6.46060725 59.4995112,6.25138651 C59.4050244,6.17450596 59.3237423,6.04245921 59.2233868,5.94973305 C58.9551851,5.7041261 58.7392153,5.613454 58.6931457,5.11783854 C58.6670298,4.82762913 58.7254238,4.30208307 58.8703818,4.18617537 C59.0526063,4.04063051 59.3287307,4.15741852 59.5998667,4.03476176 C59.7236972,3.97900869 60.0092116,4.05970393 60.2556989,4.05970393 C60.5913911,4.05970393 60.9238554,4.01539491 61.1125356,4.05970393 C61.3032698,4.10577357 61.3833781,4.23752688 61.5406605,4.33729553 C61.7848002,4.49193695 62.134284,4.5538522 62.2214348,4.81618508" id="Fill-6" fill="#FFFFFF"></path>
                    <path id="Fill-7" fill="#29323C"></path>
                    <path id="Fill-8" fill="#FFFFFF"></path>
                    <path id="Fill-9" fill="#FFFFFF"></path>
                </g>
            </g>
        </g>
    </g>
</svg>